<?xml version="1.0" standalone="no"?>
<!DOCTYPE svg PUBLIC "-//W3C//DTD SVG 20010904//EN"
 "http://www.w3.org/TR/2001/REC-SVG-20010904/DTD/svg10.dtd">
<svg version="1.0" xmlns="http://www.w3.org/2000/svg"
 width="1382.000000pt" height="1920.000000pt" viewBox="0 0 1382.000000 1920.000000"
 preserveAspectRatio="xMidYMid meet">

<g transform="translate(0.000000,1920.000000) scale(0.100000,-0.100000)"
fill="#000000" stroke="none">
<path d="M0 19135 c0 -36 2 -65 3 -65 5 0 97 119 97 125 0 3 -22 5 -50 5 l-50
0 0 -65z"/>
<path d="M108 19062 l-107 -137 -1 -70 c0 -59 2 -67 14 -55 17 19 289 370 300
388 5 9 -6 12 -46 12 l-53 0 -107 -138z"/>
<path d="M217 18920 l-218 -279 3 -66 3 -66 76 98 c76 99 433 557 451 581 8 9
-2 12 -43 12 l-54 0 -218 -280z"/>
<path d="M469 18963 c-102 -131 -249 -320 -327 -420 l-143 -182 3 -65 3 -65
177 227 c384 494 478 614 506 648 26 32 28 39 19 65 -23 59 -42 43 -238 -208z"/>
<path d="M3770 19194 c0 -19 93 -179 141 -244 146 -197 381 -353 626 -416 131
-34 327 -43 464 -20 364 60 673 287 835 615 l33 66 -192 3 -192 2 -20 -27
c-39 -55 -121 -136 -180 -178 -82 -58 -148 -90 -252 -121 -117 -35 -287 -37
-407 -5 -164 44 -328 149 -423 271 l-46 60 -194 0 c-106 0 -193 -3 -193 -6z"/>
<path d="M10514 19192 c4 -7 2 -20 -4 -29 -11 -17 -11 -17 -6 0 3 9 1 17 -4
17 -16 0 -18 -15 -4 -35 8 -10 14 -13 14 -7 0 7 5 12 10 12 6 0 8 -12 5 -27
-5 -28 -5 -28 6 2 9 21 9 30 1 33 -6 2 -9 9 -6 17 3 7 0 16 -7 21 -8 4 -10 3
-5 -4z"/>
<path d="M10605 19160 c-16 -22 -36 -37 -43 -35 -19 7 -26 -23 -11 -42 10 -12
10 -15 1 -9 -10 6 -10 2 0 -18 6 -14 15 -26 20 -26 4 0 8 -11 8 -24 0 -14 7
-31 15 -39 8 -8 12 -17 9 -20 -3 -3 1 -21 10 -40 47 -115 63 -354 31 -501 -28
-132 -97 -287 -168 -378 -16 -21 -26 -38 -23 -38 3 0 -15 -19 -39 -41 -25 -23
-42 -46 -38 -52 3 -5 1 -7 -4 -4 -6 4 -19 -3 -29 -14 -31 -35 -164 -123 -236
-157 -82 -39 -231 -80 -318 -88 -104 -9 -210 -10 -210 -1 0 4 -9 7 -20 7 -27
0 -25 -28 3 -33 l22 -4 -22 -2 c-13 0 -23 -8 -23 -16 0 -8 -4 -15 -10 -15 -5
0 -10 -11 -10 -25 0 -14 -4 -25 -9 -25 -14 0 -71 -60 -71 -75 0 -7 -16 -29
-37 -50 -26 -26 -38 -33 -44 -23 -4 7 -12 9 -16 4 -4 -5 -2 -11 5 -13 7 -3 12
-22 12 -44 0 -38 -1 -39 -37 -39 -45 0 -41 -6 11 -14 21 -4 42 -9 47 -12 48
-29 364 -45 507 -24 602 85 1073 545 1174 1144 18 108 15 364 -6 471 -20 101
-69 261 -97 318 l-19 37 -153 0 -152 -1 -30 -39z m25 -160 c0 -5 -2 -10 -4
-10 -3 0 -8 5 -11 10 -3 6 -1 10 4 10 6 0 11 -4 11 -10z m-960 -1390 c8 -5 11
-10 5 -10 -5 0 -17 5 -25 10 -8 5 -10 10 -5 10 6 0 17 -5 25 -10z m-237 -347
c-7 -2 -19 -2 -25 0 -7 3 -2 5 12 5 14 0 19 -2 13 -5z"/>
<path d="M11487 19173 c-11 -50 1 -276 18 -358 104 -499 464 -871 965 -996 83
-21 119 -24 285 -24 204 0 292 15 443 71 219 83 428 237 567 418 l55 72 0 422
0 422 -1164 0 -1164 0 -5 -27z"/>
<path d="M546 18779 c-324 -413 -399 -509 -433 -554 l-32 -44 37 5 c73 10 82
15 129 77 26 34 152 196 280 359 l232 297 -7 58 -7 57 -199 -255z"/>
<path d="M1914 18893 c-12 -2 -25 -12 -28 -21 -3 -9 -9 -23 -12 -31 -4 -9 -2
-11 5 -7 7 5 9 1 5 -8 -3 -9 -11 -13 -17 -9 -6 3 -7 1 -3 -6 4 -6 3 -18 -3
-25 -6 -7 -9 -21 -5 -30 7 -18 -13 -49 -26 -41 -5 3 -6 -5 -2 -17 3 -13 1 -19
-5 -15 -6 4 -18 -12 -27 -36 -18 -49 -21 -71 -6 -62 6 3 10 1 10 -6 0 -7 3 -9
6 -6 4 4 1 14 -7 24 -12 15 -12 16 2 11 12 -5 20 2 28 20 11 25 10 26 -4 8 -8
-11 -18 -17 -21 -13 -9 9 32 58 41 49 5 -4 5 1 2 11 -4 10 -2 17 5 17 6 0 9 3
5 6 -3 4 0 13 8 21 18 17 19 33 4 33 -5 0 -7 5 -4 10 4 6 10 8 14 6 4 -3 19
24 34 59 14 36 24 64 24 64 -1 -1 -12 -4 -23 -6z"/>
<path d="M2055 18890 c-4 -6 -3 -16 1 -22 4 -7 3 -10 -1 -5 -11 10 -58 -91
-51 -110 3 -8 2 -12 -3 -9 -5 3 -11 -2 -14 -12 -3 -9 -12 -34 -21 -55 -10 -22
-13 -37 -9 -34 4 3 9 -6 9 -19 2 -23 1 -24 -12 -7 -7 10 -14 13 -14 8 0 -6 5
-16 11 -22 13 -13 4 -33 -14 -33 -8 0 -8 3 2 9 7 5 9 11 3 14 -12 8 -43 -70
-35 -90 4 -10 2 -14 -4 -10 -6 4 -13 0 -17 -8 -6 -16 11 -20 30 -7 10 6 119
261 128 297 1 6 7 20 14 31 6 12 9 24 5 27 -3 3 2 13 11 22 9 9 16 20 16 25 0
12 -29 20 -35 10z m-18 -95 c-7 -14 -16 -25 -20 -25 -8 0 -2 14 16 38 15 19
16 14 4 -13z m-94 -242 c-7 -2 -13 -13 -13 -24 0 -10 -4 -19 -10 -19 -13 0
-13 6 0 31 6 10 16 19 23 18 9 0 9 -2 0 -6z"/>
<path d="M1726 18864 c-3 -9 -3 -21 1 -26 4 -7 1 -8 -7 -3 -8 5 -11 3 -8 -6 3
-8 12 -15 22 -17 13 -3 16 1 11 21 -5 18 -2 28 12 36 17 10 17 10 -3 11 -12 0
-25 -7 -28 -16z"/>
<path d="M2164 18778 c-21 -57 -38 -109 -38 -115 1 -7 -3 -10 -9 -6 -6 4 -8
-2 -5 -15 4 -12 2 -20 -3 -16 -13 8 -11 -10 4 -25 10 -10 9 -11 -4 -6 -12 5
-22 -7 -40 -52 -13 -32 -24 -60 -25 -63 0 -3 -5 -16 -11 -30 -6 -14 -8 -40 -5
-59 4 -30 9 -22 59 98 29 73 50 137 47 143 -4 7 -3 8 4 4 12 -7 17 11 13 43
-2 7 2 10 8 6 6 -3 11 -1 11 5 0 6 9 32 21 57 11 25 18 51 15 59 -3 8 -2 13 3
10 8 -5 31 35 31 54 0 6 -8 10 -18 10 -14 0 -28 -24 -58 -102z m-74 -258 c0
-5 -4 -10 -10 -10 -5 0 -10 5 -10 10 0 6 5 10 10 10 6 0 10 -4 10 -10z m-40
-100 c0 -5 -4 -10 -10 -10 -5 0 -10 5 -10 10 0 6 5 10 10 10 6 0 10 -4 10 -10z"/>
<path d="M2329 18798 c-13 -35 -23 -69 -22 -75 0 -7 -2 -11 -6 -8 -11 6 -33
-63 -25 -76 4 -7 3 -9 -3 -6 -12 8 -26 -20 -17 -34 3 -5 1 -9 -4 -9 -13 0 -64
-139 -56 -152 4 -7 2 -8 -4 -4 -16 10 -15 -7 1 -23 10 -10 9 -11 -3 -6 -14 5
-38 -33 -44 -68 -1 -6 -5 -18 -9 -24 -5 -7 -5 -13 -2 -13 4 0 -1 -7 -9 -16 -9
-8 -16 -22 -17 -30 -1 -20 -1 -62 0 -71 2 -9 65 122 75 155 6 18 4 21 -11 17
-12 -4 -12 -2 3 6 15 8 47 76 112 237 50 125 94 235 98 245 4 12 1 17 -14 17
-15 0 -25 -15 -43 -62z m-195 -553 c-4 -8 -8 -15 -10 -15 -2 0 -4 7 -4 15 0 8
4 15 10 15 5 0 7 -7 4 -15z"/>
<path d="M1580 18840 c0 -5 -6 -9 -12 -7 -16 3 -23 -42 -9 -56 8 -8 10 -3 5
21 -6 27 -4 31 10 26 11 -4 16 -1 16 10 0 9 -2 16 -5 16 -3 0 -5 -4 -5 -10z"/>
<path d="M2492 18813 c-31 -61 -112 -285 -106 -295 4 -6 3 -8 -3 -5 -6 4 -28
-41 -53 -106 -24 -62 -48 -117 -53 -124 -5 -7 -6 -17 -2 -23 3 -5 1 -10 -5
-10 -7 0 -10 -6 -7 -12 2 -7 9 -12 15 -11 6 2 9 -4 5 -12 -4 -11 -9 -13 -18
-5 -10 8 -15 3 -23 -20 -6 -16 -8 -30 -5 -30 3 0 -2 -9 -12 -20 -9 -10 -15
-26 -11 -35 3 -9 2 -14 -3 -11 -5 3 -11 -2 -14 -12 -3 -9 -12 -35 -21 -57 -14
-34 -14 -37 -1 -21 8 11 15 27 15 35 0 11 3 12 11 4 15 -15 -27 -77 -44 -66
-7 4 -6 0 2 -10 16 -20 8 -49 -11 -42 -19 8 -40 -52 -27 -76 12 -23 21 -25 13
-4 -4 8 -2 15 4 15 5 0 13 7 16 16 3 8 2 12 -4 9 -6 -3 -10 3 -10 15 0 13 4
19 11 14 14 -8 29 14 29 44 0 12 4 22 9 22 10 0 23 36 25 70 0 14 6 24 14 23
11 -3 16 12 15 44 -1 7 4 10 10 6 6 -4 8 0 4 10 -3 10 -3 17 1 17 8 0 36 66
37 85 0 6 3 12 6 15 14 11 69 162 63 172 -4 6 -2 8 4 5 6 -4 16 11 25 35 9 24
43 110 77 192 33 82 59 155 56 163 -7 18 -24 16 -34 -4z"/>
<path d="M1711 18790 c14 -31 19 -36 19 -24 0 6 -7 19 -16 30 -14 18 -14 18
-3 -6z"/>
<path d="M2630 18767 c-4 -12 -62 -156 -128 -321 -67 -164 -118 -305 -115
-314 4 -9 2 -13 -4 -9 -6 4 -21 -22 -36 -60 -21 -53 -24 -70 -15 -87 10 -18 9
-19 -4 -8 -13 10 -17 10 -21 -2 -7 -18 3 -56 14 -56 12 0 11 7 -3 33 -10 19
-9 20 3 10 13 -10 22 3 58 90 24 56 44 112 45 124 0 11 5 19 10 15 5 -3 7 2 3
11 -3 10 -3 17 2 17 4 0 18 24 29 53 11 28 63 156 115 284 87 212 93 232 75
236 -13 4 -22 -1 -28 -16z"/>
<path d="M1380 18751 c0 -6 4 -13 10 -16 6 -3 7 1 4 9 -7 18 -14 21 -14 7z"/>
<path d="M1360 18745 c0 -5 5 -17 10 -25 5 -8 10 -10 10 -5 0 6 -5 17 -10 25
-5 8 -10 11 -10 5z"/>
<path d="M1704 18736 c-3 -8 -11 -14 -17 -12 -7 1 -9 1 -5 -1 4 -2 4 -12 1
-21 -4 -15 -3 -15 6 -2 19 25 32 50 26 50 -3 0 -8 -6 -11 -14z"/>
<path d="M673 18663 c-32 -43 -119 -154 -192 -247 -115 -146 -128 -166 -95
-146 163 99 289 254 337 418 9 29 14 52 13 52 -2 0 -30 -35 -63 -77z"/>
<path d="M2677 18493 c-52 -131 -122 -307 -156 -391 -34 -84 -59 -158 -55
-164 4 -7 3 -8 -4 -4 -11 7 -17 -11 -13 -41 1 -7 -3 -13 -8 -13 -6 0 -18 -16
-26 -36 -19 -46 -19 -49 3 -33 9 7 4 0 -11 -15 -18 -18 -27 -35 -24 -47 3 -11
1 -17 -4 -13 -5 3 -9 -3 -9 -13 0 -10 -7 -27 -15 -37 -8 -11 -12 -29 -9 -39 4
-14 3 -17 -6 -12 -9 6 -9 2 0 -16 18 -34 24 -38 15 -10 -4 14 -3 21 3 18 10
-7 44 71 36 84 -3 5 -1 9 5 9 11 0 26 38 23 58 -2 6 1 12 6 12 16 0 24 33 10
42 -9 5 -8 8 6 8 12 0 16 5 12 16 -4 10 -2 13 6 8 7 -5 9 0 6 14 -4 12 -2 20
2 17 11 -7 32 54 23 68 -3 5 -2 7 4 4 12 -8 37 59 27 74 -4 7 -3 9 3 6 9 -6
48 73 48 98 0 6 3 12 7 15 12 10 47 113 41 123 -3 6 -2 8 3 4 8 -5 179 403
179 428 0 5 -7 11 -16 13 -13 2 -37 -48 -112 -235z m-299 -815 c-7 -13 -11
-27 -9 -33 1 -5 -3 -5 -9 1 -13 13 3 54 21 54 6 0 5 -9 -3 -22z"/>
<path d="M1656 18691 c-4 -7 -5 -15 -2 -18 9 -9 19 4 14 18 -4 11 -6 11 -12 0z"/>
<path d="M2748 18277 c-86 -215 -158 -399 -160 -407 -2 -8 -6 -17 -9 -20 -14
-13 -109 -272 -103 -282 4 -6 3 -8 -3 -5 -6 4 -15 -5 -21 -18 -9 -20 -8 -26 6
-35 16 -11 16 -11 0 -6 -25 7 -42 -27 -28 -54 14 -27 20 -25 20 6 0 16 -4 23
-12 18 -7 -4 -8 -3 -4 4 4 6 13 9 20 6 15 -6 110 222 99 239 -3 5 -1 7 4 4 10
-7 43 70 46 106 1 9 4 17 8 17 12 0 51 109 43 121 -4 7 -3 10 2 6 6 -3 34 56
64 131 29 75 57 142 61 147 3 6 20 46 37 90 17 44 52 129 77 190 44 107 49
135 23 135 -8 0 -78 -164 -170 -393z"/>
<path d="M1616 18595 c-9 -26 -7 -32 5 -12 6 10 9 21 6 23 -2 3 -7 -2 -11 -11z"/>
<path d="M2957 18408 c-42 -106 -106 -266 -142 -356 -36 -90 -63 -168 -59
-175 4 -7 4 -9 -1 -5 -7 7 -51 -82 -58 -117 -2 -5 -5 -15 -9 -20 -21 -33 -88
-220 -84 -232 3 -8 2 -12 -3 -9 -5 3 -12 -1 -15 -10 -3 -8 -2 -12 4 -9 6 3 7
-1 4 -9 -3 -9 -11 -13 -16 -10 -6 4 -9 1 -6 -7 3 -8 -2 -20 -9 -27 -8 -8 -11
-23 -7 -34 4 -13 2 -18 -4 -14 -12 7 -35 -52 -25 -67 3 -6 1 -7 -5 -3 -7 4
-12 3 -12 -3 0 -5 8 -12 18 -14 13 -4 12 -5 -5 -6 -17 -1 -21 -5 -16 -18 5
-11 3 -14 -6 -8 -10 6 -11 2 -6 -15 5 -14 3 -20 -3 -16 -15 9 -39 -60 -41
-121 -1 -23 -6 -33 -17 -33 -14 0 -14 -3 -4 -15 17 -20 30 -3 30 38 0 16 4 26
10 22 6 -3 10 -2 10 4 0 5 -4 13 -10 16 -5 3 -10 11 -10 17 0 7 5 7 14 -1 11
-9 15 -8 20 5 9 24 7 28 -9 14 -17 -14 -18 -6 -5 25 5 11 9 14 9 8 1 -7 5 -13
11 -13 5 0 6 7 3 17 -5 11 -3 14 6 8 10 -6 11 -2 6 15 -4 14 -3 20 2 17 10 -7
37 42 29 50 -3 3 2 12 10 20 8 9 13 20 11 27 -2 6 3 17 10 24 8 8 11 23 7 34
-4 12 -2 18 4 15 10 -7 44 71 36 84 -3 5 -1 9 4 9 13 0 34 59 25 73 -3 5 -2 7
3 4 12 -7 117 250 108 265 -5 7 -2 8 6 3 10 -6 12 -3 8 13 -4 12 -3 20 2 17 4
-3 35 64 69 148 33 83 96 240 140 347 56 139 76 199 69 208 -6 6 -14 12 -17
12 -4 0 -42 -87 -84 -192z"/>
<path d="M1631 18554 c0 -11 3 -14 6 -6 3 7 2 16 -1 19 -3 4 -6 -2 -5 -13z"/>
<path d="M1780 18531 c0 -7 -5 -9 -12 -5 -7 4 -8 3 -4 -5 4 -6 1 -23 -8 -36
-11 -17 -13 -26 -4 -31 7 -4 8 -3 4 4 -4 7 -3 12 1 12 10 0 35 61 28 69 -3 2
-5 -1 -5 -8z"/>
<path d="M3037 18215 c-66 -164 -115 -299 -111 -306 4 -7 3 -9 -2 -6 -13 8
-188 -428 -178 -444 4 -7 3 -9 -4 -5 -6 4 -29 -42 -60 -121 -47 -120 -50 -142
-22 -143 9 0 30 62 24 71 -3 5 0 9 6 9 6 0 9 4 6 9 -4 5 -3 11 2 13 12 5 122
279 116 289 -3 5 -1 9 5 9 5 0 19 24 30 53 19 50 213 531 301 746 35 84 40
105 29 112 -8 5 -16 9 -19 9 -3 0 -58 -133 -123 -295z"/>
<path d="M1886 18451 c-4 -5 -3 -17 0 -28 5 -15 4 -15 -5 -3 -5 8 -13 11 -16
8 -4 -4 -1 -16 7 -26 13 -20 14 -19 25 4 6 13 7 24 2 24 -4 0 -6 7 -3 15 7 16
-1 21 -10 6z"/>
<path d="M1706 18413 c-6 -14 -5 -15 5 -6 7 7 10 15 7 18 -3 3 -9 -2 -12 -12z"/>
<path d="M1555 18411 c-3 -5 -2 -12 3 -15 5 -3 9 1 9 9 0 17 -3 19 -12 6z"/>
<path d="M3243 18338 c-17 -46 -115 -290 -217 -543 -103 -253 -184 -466 -181
-473 3 -7 1 -11 -4 -8 -13 8 -123 -276 -111 -288 5 -5 10 -15 10 -21 0 -5 -5
-3 -10 5 -9 13 -11 13 -20 0 -13 -19 -13 -30 0 -30 6 0 10 -4 10 -10 0 -5 -8
-7 -17 -4 -15 5 -16 4 -3 -5 13 -10 8 -15 -12 -12 -11 1 -10 -7 4 -32 10 -19
9 -20 -4 -9 -13 10 -18 5 -34 -35 -11 -27 -21 -52 -23 -57 -2 -5 1 -6 8 -2 6
4 11 0 11 -9 0 -11 -5 -15 -14 -12 -17 7 -28 -16 -19 -40 4 -10 2 -14 -4 -10
-7 4 -16 -6 -22 -24 -8 -24 -8 -34 3 -45 12 -11 15 -11 19 0 3 7 1 19 -4 27
-15 24 -9 35 7 14 16 -20 16 -20 9 3 -4 15 -2 22 6 22 10 0 10 3 1 12 -19 19
-14 32 6 17 9 -7 14 -10 10 -5 -4 5 -1 15 7 23 11 10 12 19 5 33 -15 28 -11
38 6 15 16 -20 16 -19 9 4 -5 16 -4 21 4 17 6 -4 11 -2 11 3 0 6 -4 11 -10 11
-5 0 -10 5 -10 11 0 6 6 9 14 6 17 -7 28 16 19 40 -4 10 -2 14 4 10 6 -4 18
13 28 41 9 26 26 66 36 90 11 24 76 181 144 350 68 169 185 457 259 641 104
256 133 337 125 348 -6 7 -14 13 -18 13 -3 0 -21 -37 -38 -82z"/>
<path d="M1721 18384 c0 -11 3 -14 6 -6 3 7 2 16 -1 19 -3 4 -6 -2 -5 -13z"/>
<path d="M1996 18360 c-12 -31 -14 -46 -6 -48 7 -3 4 -10 -8 -18 -25 -17 -43
-66 -32 -85 5 -7 12 -10 17 -6 4 5 1 12 -7 17 -10 6 -11 10 -3 10 7 0 10 7 7
15 -4 8 -1 15 5 15 6 0 11 -6 11 -12 1 -18 18 13 35 61 12 35 12 39 -1 34 -8
-3 -14 -1 -14 5 0 6 5 12 11 14 6 2 10 13 7 23 -3 15 -8 8 -22 -25z"/>
<path d="M1534 18351 c0 -22 4 -37 8 -35 4 3 4 12 1 21 -5 11 -3 14 6 8 11 -6
11 -3 1 16 -7 13 -14 25 -15 26 -1 2 -1 -15 -1 -36z"/>
<path d="M1840 18305 c-7 -9 -10 -18 -7 -21 3 -3 10 4 17 15 13 25 8 27 -10 6z"/>
<path d="M3384 18294 c-4 -10 -28 -71 -54 -134 -91 -219 -350 -868 -350 -874
0 -4 5 -4 12 0 7 4 8 3 4 -5 -4 -6 -11 -9 -16 -6 -11 7 -23 -32 -14 -46 4 -7
3 -9 -3 -6 -13 8 -36 -50 -26 -67 3 -6 3 -8 -2 -4 -4 4 -30 -48 -57 -115 -27
-67 -53 -131 -58 -142 -23 -49 -30 -76 -17 -70 6 4 4 0 -5 -8 -12 -9 -14 -17
-7 -24 8 -8 7 -13 -2 -18 -8 -6 -10 -4 -5 6 4 8 0 5 -8 -6 -9 -11 -14 -25 -12
-31 3 -8 -3 -11 -17 -8 -20 3 -28 -8 -66 -97 -42 -96 -43 -100 -25 -114 10 -8
30 -18 44 -21 37 -10 94 -40 109 -58 7 -8 18 -13 26 -10 17 7 95 -33 95 -49 0
-6 -4 -19 -10 -27 -6 -9 -5 -17 3 -22 9 -6 9 -8 -1 -8 -7 0 -22 -21 -32 -46
-23 -53 -23 -54 -10 -54 6 0 9 3 8 8 -1 4 4 24 12 44 11 30 17 35 27 26 8 -6
13 -7 11 -2 -4 13 25 74 35 74 17 0 85 -40 90 -52 2 -7 -3 -23 -11 -35 -9 -15
-10 -23 -3 -23 6 0 2 -9 -9 -20 -11 -11 -20 -29 -20 -39 0 -11 -4 -22 -9 -25
-5 -3 -14 -20 -20 -36 -6 -18 -6 -28 -1 -25 6 4 10 -3 10 -14 0 -20 -14 -29
-23 -13 -2 4 -2 2 -1 -5 2 -6 0 -14 -4 -16 -4 -2 -1 -2 6 -1 6 2 12 -2 12 -9
0 -7 14 20 31 58 16 39 28 80 26 93 -2 12 0 25 6 29 6 3 7 1 3 -5 -4 -7 -3
-12 2 -12 5 0 12 8 15 18 2 9 8 26 12 37 5 16 5 17 -4 5 -7 -10 -11 -11 -11
-3 0 7 9 17 20 23 26 14 112 197 105 221 -3 10 1 32 10 49 9 17 13 35 10 39
-3 5 0 11 6 13 6 2 12 15 12 30 1 14 5 24 8 23 3 -2 29 54 59 126 29 71 55
131 59 133 3 2 24 -11 45 -29 l40 -33 -78 -192 c-42 -105 -73 -196 -70 -203 4
-7 3 -9 -1 -4 -10 9 -37 -51 -29 -64 3 -5 1 -9 -5 -9 -5 0 -17 -21 -27 -47 -9
-27 -25 -67 -36 -90 -11 -23 -16 -48 -12 -54 4 -7 3 -9 -3 -6 -11 7 -40 -69
-35 -92 2 -8 -1 -10 -9 -5 -9 5 -10 2 -6 -9 3 -10 3 -17 -2 -17 -5 0 -11 -8
-14 -17 -2 -10 -8 -27 -13 -37 -5 -14 -4 -17 4 -12 7 4 12 2 12 -3 0 -6 -6
-11 -13 -11 -8 0 -21 -19 -30 -42 -17 -42 -14 -67 4 -35 6 9 14 15 20 12 5 -4
9 -2 9 4 0 5 -4 13 -10 16 -5 3 -10 11 -10 18 0 8 3 8 12 -1 8 -8 17 1 35 40
13 28 21 58 18 65 -3 9 0 11 7 7 8 -5 9 -2 5 9 -4 10 -2 17 4 17 6 0 8 7 5 16
-3 8 -2 13 2 10 4 -2 82 178 172 402 138 341 171 414 204 449 32 36 36 46 26
58 -7 8 -10 25 -6 37 12 49 192 476 201 479 6 2 22 -19 37 -47 l27 -51 -140
-349 c-78 -192 -181 -450 -231 -574 -49 -124 -95 -238 -103 -255 -32 -70 -53
-133 -48 -139 4 -3 1 -6 -6 -6 -8 0 -11 -8 -8 -20 3 -11 1 -18 -3 -15 -11 7
-32 -54 -23 -68 4 -6 1 -7 -7 -2 -9 6 -10 2 -5 -15 5 -15 4 -20 -4 -16 -10 7
-12 2 -15 -36 -1 -7 -8 -18 -16 -24 -12 -10 -12 -14 -1 -28 12 -14 12 -16 -1
-11 -21 8 -55 -74 -36 -86 10 -7 10 -9 -2 -9 -10 0 -16 -12 -17 -35 -1 -19 2
-35 6 -35 8 0 38 82 33 89 -2 2 1 7 6 10 6 3 19 29 30 56 11 28 34 85 51 128
17 43 28 83 25 89 -4 6 -3 9 2 5 5 -3 46 85 91 196 45 111 136 337 203 502
126 313 200 494 227 557 9 21 20 35 25 32 4 -3 20 -28 33 -55 14 -27 28 -49
31 -49 13 0 194 104 192 110 -12 27 -251 450 -254 450 -3 0 -40 -20 -84 -45
-44 -25 -83 -45 -88 -45 -5 0 -3 19 6 43 15 41 12 77 -5 77 -5 0 -19 -28 -32
-62 -68 -176 -244 -604 -252 -613 -6 -6 -23 4 -46 27 l-36 37 50 128 c28 70
94 235 148 365 82 202 94 240 85 259 -7 11 -13 19 -15 17 -2 -1 -45 -106 -95
-233 -51 -126 -100 -248 -109 -270 -10 -22 -35 -84 -56 -137 -21 -54 -41 -98
-45 -98 -3 0 -23 17 -43 38 l-37 38 30 75 c195 469 280 692 269 705 -7 8 -16
11 -20 7 -4 -4 -48 -109 -97 -233 -242 -605 -239 -599 -291 -659 -49 -56 -49
-57 -31 -79 18 -22 18 -24 1 -65 -10 -23 -46 -112 -81 -197 -94 -236 -113
-280 -117 -280 -4 0 -86 41 -92 46 -3 3 50 136 71 177 5 11 7 21 5 24 -3 3
-10 -5 -17 -16 -6 -12 -16 -21 -22 -21 -6 0 4 14 21 31 34 32 86 152 75 171
-4 6 -2 8 3 5 6 -4 18 14 28 41 10 26 31 77 47 115 16 37 26 73 22 80 -4 6 -3
9 1 4 11 -9 57 111 48 126 -3 5 -2 7 4 4 5 -3 85 181 177 409 154 380 167 417
153 432 -15 14 -17 14 -23 -4z m334 -599 l30 -56 -106 -264 c-58 -146 -109
-265 -112 -265 -3 1 -22 16 -43 34 l-38 34 49 124 c28 67 76 186 107 263 31
77 61 150 66 163 5 12 11 22 13 22 2 0 18 -25 34 -55z m-545 -566 c21 -17 37
-37 37 -44 0 -7 -12 -38 -26 -70 -14 -31 -27 -67 -28 -80 0 -13 -4 -21 -7 -19
-10 6 -50 -106 -42 -118 4 -7 1 -8 -7 -3 -10 6 -12 4 -7 -8 3 -10 2 -17 -2
-17 -9 0 -61 -125 -61 -144 0 -4 7 -5 16 -2 8 3 12 2 9 -4 -13 -22 -130 19
-130 46 0 5 -4 15 -9 22 -4 7 -5 16 -2 19 3 4 6 1 6 -5 0 -7 5 -12 11 -12 6 0
9 7 5 15 -3 8 -1 15 4 15 9 0 52 107 50 124 -1 5 2 12 8 15 13 9 33 72 25 84
-3 5 -2 7 4 4 14 -9 35 41 28 67 -4 14 -3 17 3 8 6 -9 17 9 36 62 16 42 31 76
35 76 4 0 24 -14 44 -31z m121 -112 l35 -34 -44 -107 c-25 -60 -64 -156 -87
-215 -23 -58 -43 -108 -45 -110 -2 -3 -23 5 -48 17 -40 19 -43 24 -42 56 1 19
4 32 6 30 5 -4 40 65 41 79 0 5 -4 5 -10 2 -6 -3 -7 1 -4 9 3 9 9 14 13 11 5
-2 27 44 51 103 67 163 80 192 90 192 5 0 24 -15 44 -33z m-279 -866 c3 -5 1
-12 -5 -16 -5 -3 -10 1 -10 9 0 18 6 21 15 7z m122 -103 c-3 -8 -6 -5 -6 6 -1
11 2 17 5 13 3 -3 4 -12 1 -19z m137 -63 c-4 -8 -11 -12 -16 -9 -6 4 -5 10 3
15 19 12 19 11 13 -6z m-62 -117 c-8 -8 -9 -4 -5 13 4 13 8 18 11 10 2 -7 -1
-18 -6 -23z"/>
<path d="M1794 18225 c-13 -11 -14 -14 -4 -13 15 3 16 -2 5 -37 -4 -14 -2 -12
8 5 9 14 13 29 10 33 -3 5 1 13 8 18 8 5 9 9 3 9 -5 0 -19 -7 -30 -15z"/>
<path d="M1930 18203 c0 -5 6 -15 13 -22 10 -11 9 -13 -6 -8 -15 6 -16 4 -7
-13 6 -11 14 -20 17 -20 3 0 3 3 0 7 -4 3 -2 12 4 19 8 10 7 18 -5 29 -9 9
-16 13 -16 8z"/>
<path d="M1771 18184 c0 -11 3 -14 6 -6 3 7 2 16 -1 19 -3 4 -6 -2 -5 -13z"/>
<path d="M2077 18169 c-3 -12 -3 -18 0 -15 4 3 12 1 20 -5 14 -13 17 -2 7 25
-9 22 -21 20 -27 -5z"/>
<path d="M1901 18123 c-10 -26 -10 -27 4 -9 8 11 15 23 15 28 0 15 -7 8 -19
-19z"/>
<path d="M2052 18112 c-6 -18 -7 -32 -2 -32 5 0 7 -7 3 -16 -4 -11 -8 -12 -13
-4 -5 8 -9 5 -12 -8 -3 -11 -2 -26 3 -33 5 -8 2 -20 -7 -31 -12 -13 -13 -21
-4 -35 10 -16 10 -15 4 6 -4 15 -2 21 4 17 10 -6 27 39 23 63 -1 8 2 10 10 5
8 -4 10 -3 5 4 -4 6 0 22 9 35 13 20 13 26 1 42 -12 17 -14 16 -24 -13z m15
-24 c-3 -7 -5 -2 -5 12 0 14 2 19 5 13 2 -7 2 -19 0 -25z"/>
<path d="M5246 18099 c-5 -26 -43 -332 -59 -464 -2 -18 7 -21 78 -32 44 -6 94
-12 111 -12 l31 -1 27 223 c15 122 30 238 33 258 l5 36 -68 7 c-38 4 -88 10
-111 13 -41 5 -42 5 -47 -28z"/>
<path d="M4523 18092 c-57 -11 -83 -21 -83 -30 0 -17 92 -495 96 -500 3 -5
206 37 212 43 3 3 -17 117 -43 255 l-49 250 -25 -1 c-14 -1 -63 -9 -108 -17z"/>
<path d="M1860 18030 c0 -5 5 -10 11 -10 5 0 7 5 4 10 -3 6 -8 10 -11 10 -2 0
-4 -4 -4 -10z"/>
<path d="M1850 17979 c0 -5 5 -7 10 -4 6 3 10 8 10 11 0 2 -4 4 -10 4 -5 0
-10 -5 -10 -11z"/>
<path d="M1993 17958 c3 -9 1 -18 -6 -21 -6 -2 -2 -6 11 -9 19 -5 21 -4 10 15
-14 28 -23 37 -15 15z"/>
<path d="M2145 17940 c3 -5 8 -10 11 -10 2 0 4 5 4 10 0 6 -5 10 -11 10 -5 0
-7 -4 -4 -10z"/>
<path d="M2290 17920 c0 -8 -6 -27 -14 -41 -7 -14 -12 -41 -10 -60 3 -26 1
-30 -6 -19 -9 13 -11 12 -9 -5 2 -34 -1 -41 -12 -25 -8 11 -9 5 -5 -24 5 -36
4 -37 -10 -20 -14 18 -15 18 -8 -5 4 -15 2 -21 -4 -17 -13 8 -26 -29 -17 -45
4 -5 -1 -17 -11 -25 -11 -9 -13 -12 -5 -8 7 3 18 0 23 -7 8 -11 9 -10 4 4 -3
9 -2 17 2 17 4 0 8 12 8 26 1 14 9 31 18 37 9 7 17 21 19 32 2 11 13 40 26 64
17 32 19 42 8 38 -20 -7 -11 28 12 45 14 12 15 11 2 -5 -8 -9 -11 -20 -8 -23
3 -3 10 4 17 15 8 17 8 26 -5 43 -10 15 -15 18 -15 8z"/>
<path d="M6021 17892 c-30 -58 -201 -423 -201 -428 0 -10 194 -94 201 -87 7 8
219 452 219 460 0 4 -186 93 -195 93 -2 0 -13 -17 -24 -38z"/>
<path d="M1966 17893 c-6 -14 -5 -15 5 -6 7 7 10 15 7 18 -3 3 -9 -2 -12 -12z"/>
<path d="M1990 17899 c0 -5 5 -7 10 -4 6 3 10 8 10 11 0 2 -4 4 -10 4 -5 0
-10 -5 -10 -11z"/>
<path d="M1937 17830 c-3 -13 -4 -26 -2 -29 3 -2 5 1 5 9 0 10 4 10 18 -1 15
-12 16 -12 6 1 -6 8 -13 22 -16 30 -3 10 -7 6 -11 -10z"/>
<path d="M2116 17817 c3 -10 9 -15 12 -12 3 3 0 11 -7 18 -10 9 -11 8 -5 -6z"/>
<path d="M2098 17789 c3 -21 7 -27 13 -18 4 7 3 21 -2 31 -14 25 -16 23 -11
-13z"/>
<path d="M2061 17734 c0 -11 3 -14 6 -6 3 7 2 16 -1 19 -3 4 -6 -2 -5 -13z"/>
<path d="M2045 17700 c-3 -5 -1 -10 4 -10 6 0 11 5 11 10 0 6 -2 10 -4 10 -3
0 -8 -4 -11 -10z"/>
<path d="M9374 17676 c11 -9 29 -16 40 -15 17 1 16 2 -6 9 -14 4 -32 11 -40
15 -7 3 -4 -1 6 -9z"/>
<path d="M2029 17659 c-8 -16 -8 -24 2 -33 9 -8 10 -8 5 1 -4 7 -2 22 4 33 6
11 8 20 6 20 -3 0 -10 -9 -17 -21z"/>
<path d="M9425 17650 c-13 -5 -14 -9 -5 -9 8 0 24 4 35 9 13 5 14 9 5 9 -8 0
-24 -4 -35 -9z"/>
<path d="M9455 17630 c-3 -5 1 -10 9 -10 9 0 16 5 16 10 0 6 -4 10 -9 10 -6 0
-13 -4 -16 -10z"/>
<path d="M9505 17631 c-19 -8 -19 -8 4 -20 12 -7 25 -10 29 -7 3 3 0 6 -6 6
-6 0 -9 7 -6 15 7 17 7 17 -21 6z"/>
<path d="M9402 17620 c14 -4 32 -11 40 -15 7 -3 4 1 -6 9 -11 9 -29 16 -40 15
-17 -1 -16 -2 6 -9z"/>
<path d="M2323 17608 c3 -9 1 -19 -6 -22 -7 -2 -4 -5 6 -5 20 -1 21 7 6 29 -9
13 -10 13 -6 -2z"/>
<path d="M2300 17565 c0 -5 5 -17 10 -25 9 -13 11 -13 20 0 5 8 10 20 10 25 0
6 -5 3 -10 -5 -9 -13 -11 -13 -20 0 -5 8 -10 11 -10 5z"/>
<path d="M2280 17505 c-10 -30 -10 -40 -1 -43 8 -3 6 -9 -6 -19 -10 -8 -12
-12 -5 -8 6 3 12 0 12 -7 1 -7 7 2 16 21 10 24 11 38 4 45 -15 15 -12 30 4 17
11 -9 16 -9 22 1 4 7 4 10 -1 6 -4 -4 -13 0 -20 9 -11 14 -14 12 -25 -22z m20
-25 c0 -5 -2 -10 -4 -10 -3 0 -8 5 -11 10 -3 6 -1 10 4 10 6 0 11 -4 11 -10z"/>
<path d="M2134 17517 c3 -10 6 -21 6 -23 0 -2 5 -4 12 -4 6 0 8 3 5 7 -4 3 -2
12 4 20 9 9 8 13 0 13 -6 0 -11 -6 -11 -12 0 -9 -4 -8 -11 2 -9 12 -10 12 -5
-3z"/>
<path d="M6707 17478 c-9 -13 -88 -97 -177 -188 l-160 -165 82 -78 82 -79 76
79 c156 164 275 294 275 301 0 8 -149 152 -158 152 -2 0 -12 -10 -20 -22z"/>
<path d="M2093 17428 c-11 -30 -11 -31 2 -14 8 11 15 14 15 7 0 -7 5 -9 11 -5
7 4 7 9 2 13 -6 3 -12 12 -14 19 -2 7 -10 -2 -16 -20z"/>
<path d="M2406 17422 c-14 -23 -25 -63 -16 -57 6 3 10 2 10 -4 0 -5 -6 -12
-12 -14 -10 -4 -10 -6 -1 -6 9 -1 10 -8 2 -28 -6 -16 -6 -23 -1 -18 5 6 16 29
25 52 14 36 14 41 2 37 -8 -4 -15 -1 -15 5 0 10 14 15 33 12 13 -2 3 22 -10
26 -6 2 -14 0 -17 -5z"/>
<path d="M2256 17405 c-9 -26 -7 -32 5 -12 6 10 9 21 6 23 -2 3 -7 -2 -11 -11z"/>
<path d="M9030 17396 c0 -3 9 -10 20 -16 11 -6 20 -8 20 -6 0 3 -9 10 -20 16
-11 6 -20 8 -20 6z"/>
<path d="M2240 17360 c11 -7 11 -10 2 -10 -7 0 -10 -5 -6 -11 4 -8 9 -7 15 2
9 15 3 29 -14 29 -7 0 -6 -4 3 -10z"/>
<path d="M9238 17353 c7 -3 16 -2 19 1 4 3 -2 6 -13 5 -11 0 -14 -3 -6 -6z"/>
<path d="M9130 17344 c0 -9 40 -23 44 -15 3 5 -5 11 -19 13 -14 3 -25 4 -25 2z"/>
<path d="M9204 17336 c11 -9 24 -16 30 -16 12 0 7 5 -24 19 -24 11 -24 11 -6
-3z"/>
<path d="M2360 17310 c-9 -16 -9 -25 -1 -33 18 -18 13 -31 -6 -16 -15 11 -16
11 -5 -1 18 -21 15 -34 -5 -19 -15 11 -16 11 -5 -1 17 -19 15 -33 -3 -26 -12
4 -13 2 -3 -14 11 -17 13 -15 30 22 12 28 15 45 8 57 -6 12 -5 22 2 29 7 7 9
14 6 18 -4 3 -12 -4 -18 -16z"/>
<path d="M9256 17322 c-2 -4 2 -16 10 -27 12 -16 14 -17 14 -2 0 9 -6 17 -12
17 -9 0 -8 4 2 10 9 6 10 10 3 10 -6 0 -14 -3 -17 -8z"/>
<path d="M9188 17313 c7 -3 16 -2 19 1 4 3 -2 6 -13 5 -11 0 -14 -3 -6 -6z"/>
<path d="M9225 17300 c3 -5 11 -10 16 -10 6 0 7 5 4 10 -3 6 -11 10 -16 10 -6
0 -7 -4 -4 -10z"/>
<path d="M3831 17060 c-52 -129 -100 -248 -107 -265 -7 -16 -78 -192 -158
-390 -79 -198 -153 -381 -164 -407 -11 -25 -18 -49 -14 -53 4 -3 2 -9 -4 -13
-13 -9 -46 -92 -36 -92 4 0 2 -4 -4 -8 -5 -4 -21 -33 -34 -65 -19 -50 -21 -60
-9 -69 11 -8 10 -9 -4 -4 -13 4 -20 -2 -27 -20 -5 -13 -9 -28 -8 -32 3 -14
-14 -62 -22 -62 -14 0 -21 -32 -10 -45 7 -8 7 -15 1 -19 -5 -3 -12 0 -14 6 -3
7 -6 9 -6 3 0 -5 4 -17 9 -25 9 -13 11 -13 20 0 5 8 7 23 4 34 -4 10 -2 16 3
13 5 -3 9 4 9 16 -1 14 4 21 13 19 9 -2 12 4 8 18 -3 11 -2 18 3 15 14 -9 20
26 8 48 -11 21 -10 21 7 7 10 -8 16 -10 12 -3 -4 6 -3 13 2 15 14 5 82 188 75
200 -4 6 -3 8 3 5 13 -8 47 78 37 94 -4 7 -3 10 2 6 9 -5 54 101 349 828 149
368 165 413 158 445 -8 33 -14 23 -102 -200z"/>
<path d="M2006 17198 c3 -5 10 -6 15 -3 13 9 11 12 -6 12 -8 0 -12 -4 -9 -9z"/>
<path d="M2616 17174 c-4 -9 -4 -19 -1 -22 3 -3 5 1 5 8 0 7 2 11 5 8 8 -8 -6
-39 -15 -33 -4 3 -13 -7 -18 -23 -5 -15 -13 -34 -17 -43 -4 -10 0 -19 9 -22
18 -7 72 95 60 114 -5 8 -3 9 6 4 8 -5 11 -3 8 6 -7 21 -34 23 -42 3z m-6 -93
c0 -5 -7 -11 -14 -14 -10 -4 -13 -1 -9 9 6 15 23 19 23 5z"/>
<path d="M2301 17175 c0 -5 6 -19 14 -29 8 -11 15 -15 15 -10 0 6 -7 19 -15
30 -8 10 -14 15 -14 9z"/>
<path d="M2286 17134 c-9 -22 -8 -23 13 -21 16 1 18 5 10 19 -12 22 -15 22
-23 2z"/>
<path d="M1986 17107 c3 -10 9 -15 12 -12 3 3 0 11 -7 18 -10 9 -11 8 -5 -6z"/>
<path d="M2268 17062 c4 -10 7 -12 10 -4 2 7 9 9 15 5 7 -3 8 -2 4 2 -14 16
-36 14 -29 -3z"/>
<path d="M2257 17025 c7 -37 13 -45 13 -17 0 11 3 22 8 25 4 2 2 2 -5 1 -6 -2
-14 2 -17 9 -3 7 -3 -1 1 -18z"/>
<path d="M2410 17042 c0 -5 7 -15 15 -22 8 -7 15 -8 15 -2 0 5 -7 15 -15 22
-8 7 -15 8 -15 2z"/>
<path d="M2570 17021 c5 -11 7 -28 4 -38 -5 -15 -4 -16 5 -2 11 17 4 59 -11
59 -5 0 -4 -8 2 -19z"/>
<path d="M2546 17004 c-8 -22 1 -31 16 -16 9 9 9 15 1 23 -7 7 -12 5 -17 -7z"/>
<path d="M2395 16970 c-3 -5 -1 -10 4 -10 6 0 11 5 11 10 0 6 -2 10 -4 10 -3
0 -8 -4 -11 -10z"/>
<path d="M3898 16839 c-32 -79 -109 -272 -173 -429 -73 -180 -113 -292 -109
-305 4 -14 2 -16 -4 -7 -11 16 -47 -72 -36 -89 4 -7 3 -9 -3 -6 -14 9 -34 -47
-27 -71 4 -12 3 -13 -3 -4 -11 15 -87 -174 -76 -191 3 -5 1 -7 -5 -4 -12 8
-45 -80 -35 -97 3 -6 2 -8 -2 -3 -9 7 -39 -52 -31 -61 10 -9 27 11 22 25 -3 8
-1 11 4 8 10 -6 50 51 50 73 0 7 9 33 20 58 12 24 18 50 14 56 -4 6 -3 8 4 5
6 -4 22 23 40 70 17 43 92 229 167 413 258 634 246 604 243 655 l-3 48 -57
-144z"/>
<path d="M2530 16961 c0 -5 -3 -18 -6 -28 -4 -14 -2 -13 8 3 7 12 20 19 28 17
13 -4 13 -3 0 6 -19 13 -30 14 -30 2z"/>
<path d="M2360 16931 c0 -5 7 -15 17 -22 15 -13 15 -12 4 9 -12 23 -21 28 -21
13z"/>
<path d="M2545 16921 c-3 -12 -10 -19 -15 -16 -5 3 -12 -5 -16 -17 -4 -13 -12
-26 -18 -30 -6 -4 -1 -6 10 -6 15 2 20 7 16 20 -2 10 1 18 6 18 13 0 36 39 29
47 -3 2 -8 -5 -12 -16z"/>
<path d="M2220 16900 c-6 -11 -8 -20 -6 -20 3 0 10 9 16 20 6 11 8 20 6 20 -3
0 -10 -9 -16 -20z"/>
<path d="M2358 16898 c9 -9 9 -15 -1 -27 -11 -14 -10 -14 6 -2 13 10 15 17 6
27 -6 8 -14 14 -17 14 -3 0 -1 -5 6 -12z"/>
<path d="M7170 16829 c-41 -22 -102 -56 -135 -74 -33 -18 -100 -54 -148 -80
-72 -39 -87 -50 -82 -66 12 -36 93 -174 102 -172 9 2 393 206 430 229 l22 14
-37 67 c-20 38 -43 81 -51 96 -8 15 -17 27 -20 27 -3 0 -40 -19 -81 -41z"/>
<path d="M2461 16774 c0 -11 3 -14 6 -6 3 7 2 16 -1 19 -3 4 -6 -2 -5 -13z"/>
<path d="M9679 16700 c-487 -57 -915 -361 -1133 -802 -173 -353 -199 -728 -75
-1101 164 -497 571 -858 1092 -969 149 -31 408 -32 565 0 510 103 917 455
1092 947 98 275 105 601 20 897 -38 130 -142 339 -224 448 -124 165 -333 343
-503 429 -259 130 -555 183 -834 151z m383 -480 c196 -42 388 -152 517 -298
160 -181 244 -378 258 -607 37 -614 -499 -1119 -1104 -1039 -432 56 -770 372
-854 799 -17 88 -17 269 0 360 83 427 439 756 872 803 96 11 202 4 311 -18z"/>
<path d="M2416 16673 c-6 -14 -5 -15 5 -6 7 7 10 15 7 18 -3 3 -9 -2 -12 -12z"/>
<path d="M2432 16658 c-7 -7 -12 -19 -12 -27 0 -11 5 -8 16 7 18 25 15 39 -4
20z"/>
<path d="M2565 16641 c3 -5 1 -13 -5 -16 -8 -5 -8 -11 0 -20 6 -7 8 -21 4 -31
-3 -11 1 -9 10 6 17 28 21 53 5 30 -8 -12 -9 -9 -5 13 4 16 2 27 -4 27 -6 0
-9 -4 -5 -9z"/>
<path d="M2525 16546 c-10 -15 -15 -29 -11 -33 3 -3 6 -1 6 6 0 7 4 9 10 6 6
-3 7 1 4 9 -3 9 -1 16 5 16 6 0 11 -5 11 -12 0 -6 3 -9 6 -5 3 3 1 13 -4 23
-9 15 -11 14 -27 -10z"/>
<path d="M2657 16492 c-2 -9 -8 -26 -12 -37 -3 -11 1 -8 9 7 10 17 22 25 31
22 22 -9 18 3 -4 15 -15 8 -20 7 -24 -7z"/>
<path d="M2508 16475 c2 -14 8 -22 13 -19 5 3 5 14 -1 25 -14 26 -18 24 -12
-6z"/>
<path d="M2670 16455 c0 -9 -10 -20 -22 -25 -13 -5 -18 -9 -11 -9 6 -1 13 -8
15 -16 2 -8 11 3 20 25 9 22 12 40 7 40 -5 0 -9 -7 -9 -15z"/>
<path d="M2790 16430 c0 -5 5 -10 11 -10 5 0 7 -5 4 -10 -4 -6 -12 -7 -18 -4
-8 5 -8 3 1 -7 16 -17 35 1 26 24 -7 18 -24 23 -24 7z"/>
<path d="M3804 16218 c-83 -207 -84 -211 -41 -128 35 66 121 289 114 296 -2 2
-35 -74 -73 -168z"/>
<path d="M2764 16358 c-4 -13 -7 -29 -5 -37 1 -8 -2 -10 -11 -6 -10 6 -11 5 0
-6 6 -7 12 -19 12 -27 0 -12 -2 -12 -17 -1 -15 13 -15 12 -2 -8 l14 -23 13 25
c8 17 10 31 3 43 -6 12 -5 23 6 37 15 20 15 20 10 -3 -3 -12 -1 -20 4 -16 15
9 10 44 -5 44 -8 0 -18 -10 -22 -22z"/>
<path d="M2450 16345 c0 -5 5 -17 10 -25 5 -8 10 -10 10 -5 0 6 -5 17 -10 25
-5 8 -10 11 -10 5z"/>
<path d="M2600 16319 c0 -5 5 -7 10 -4 6 3 10 8 10 11 0 2 -4 4 -10 4 -5 0
-10 -5 -10 -11z"/>
<path d="M2431 16283 c7 -12 15 -20 18 -17 3 2 -3 12 -13 22 -17 16 -18 16 -5
-5z"/>
<path d="M2912 16278 c-14 -14 -16 -28 -3 -28 5 0 11 9 14 20 6 23 5 24 -11 8z"/>
<path d="M2566 16265 c-9 -26 -7 -32 5 -12 6 10 9 21 6 23 -2 3 -7 -2 -11 -11z"/>
<path d="M2583 16245 c-3 -9 -3 -18 -1 -21 3 -3 8 4 11 16 6 23 -1 27 -10 5z"/>
<path d="M2706 16225 c-9 -26 -7 -32 5 -12 6 10 9 21 6 23 -2 3 -7 -2 -11 -11z"/>
<path d="M7257 16175 c-126 -29 -231 -56 -235 -59 -3 -4 5 -51 18 -106 18 -76
27 -100 40 -100 21 0 479 106 486 112 2 3 -6 50 -18 104 -20 82 -27 99 -43
101 -11 1 -123 -22 -248 -52z"/>
<path d="M2851 16190 c-5 -16 -9 -30 -8 -31 29 -11 50 2 27 16 -6 4 -8 15 -5
26 10 31 -2 22 -14 -11z"/>
<path d="M2882 16208 c-14 -14 -16 -28 -3 -28 9 0 24 30 18 36 -2 2 -9 -2 -15
-8z"/>
<path d="M2535 16180 c3 -5 8 -10 11 -10 2 0 4 5 4 10 0 6 -5 10 -11 10 -5 0
-7 -4 -4 -10z"/>
<path d="M2687 16176 c-3 -8 -2 -18 3 -21 13 -8 20 9 11 24 -6 10 -10 9 -14
-3z"/>
<path d="M2520 16146 c0 -2 8 -10 18 -17 15 -13 16 -12 3 4 -13 16 -21 21 -21
13z"/>
<path d="M2680 16120 c6 -11 13 -20 16 -20 2 0 0 9 -6 20 -6 11 -13 20 -16 20
-2 0 0 -9 6 -20z"/>
<path d="M2846 16110 c-8 -16 -11 -30 -6 -30 4 0 13 14 19 30 5 17 8 30 6 30
-2 0 -10 -13 -19 -30z"/>
<path d="M2670 16091 c0 -6 4 -13 10 -16 6 -3 7 1 4 9 -7 18 -14 21 -14 7z"/>
<path d="M2827 16063 c-4 -3 -7 -13 -7 -22 1 -13 3 -13 11 2 11 19 8 33 -4 20z"/>
<path d="M2795 16050 c-3 -5 -1 -10 4 -10 6 0 11 5 11 10 0 6 -2 10 -4 10 -3
0 -8 -4 -11 -10z"/>
<path d="M2946 16044 c-3 -9 -4 -20 0 -25 3 -5 1 -9 -3 -9 -14 0 -31 -56 -22
-72 7 -13 -1 -15 -58 -14 -36 0 -68 6 -70 11 -2 7 -28 9 -66 7 -42 -2 -71 1
-92 12 -16 9 -33 12 -38 7 -10 -10 -98 -2 -114 11 -16 13 -20 -10 -27 -134 -4
-73 -2 -98 7 -99 6 0 48 -5 92 -10 44 -5 116 -12 160 -15 44 -3 85 -9 90 -13
6 -4 39 -8 74 -9 49 -1 69 -6 85 -21 l21 -20 -2 32 c-1 18 -3 46 -4 62 -1 17
1 60 6 98 7 67 7 67 -17 67 -32 0 -51 37 -34 67 6 11 18 18 26 16 9 -3 11 -1
5 4 -13 10 -16 43 -4 43 5 0 9 5 9 10 0 16 -17 12 -24 -6z"/>
<path d="M2760 15970 c0 -5 5 -10 11 -10 5 0 7 5 4 10 -3 6 -8 10 -11 10 -2 0
-4 -4 -4 -10z"/>
<path d="M2946 15965 c-9 -26 -7 -32 5 -12 6 10 9 21 6 23 -2 3 -7 -2 -11 -11z"/>
<path d="M3070 15914 c-14 -7 -23 -14 -20 -15 3 0 12 -2 22 -4 9 -2 18 5 21
16 3 10 4 19 4 18 -1 -1 -13 -7 -27 -15z"/>
<path d="M3048 15865 c5 -30 18 -32 25 -4 3 12 3 18 0 15 -4 -3 -12 -1 -18 4
-9 8 -11 4 -7 -15z"/>
<path d="M3027 15844 c-3 -3 -1 -18 4 -33 9 -24 8 -25 -6 -7 -8 11 -15 16 -15
10 0 -5 7 -17 14 -27 12 -16 14 -16 20 -1 13 34 1 76 -17 58z"/>
<path d="M3004 15783 c4 -6 2 -14 -4 -18 -5 -3 -10 -14 -9 -23 0 -14 2 -14 10
3 7 16 8 13 4 -12 -6 -41 0 -42 13 -4 8 23 7 34 -5 48 -8 10 -12 13 -9 6z"/>
<path d="M3138 15731 c-11 -28 -13 -42 -5 -50 7 -7 7 -18 0 -33 -6 -15 -12
-18 -17 -10 -4 7 -2 12 3 12 6 0 11 5 11 10 0 15 -17 12 -24 -5 -6 -17 2 -45
14 -45 10 0 50 94 49 117 0 16 -1 16 -10 -2 -7 -16 -8 -13 -4 13 6 42 1 41
-17 -7z m12 -41 c0 -5 -2 -10 -4 -10 -3 0 -8 5 -11 10 -3 6 -1 10 4 10 6 0 11
-4 11 -10z"/>
<path d="M2961 15643 c7 -12 15 -20 18 -17 3 2 -3 12 -13 22 -17 16 -18 16 -5
-5z"/>
<path d="M3082 15595 c-10 -21 -9 -25 3 -25 8 0 15 -6 16 -12 0 -7 5 -2 10 11
5 13 7 26 4 29 -3 3 -5 0 -5 -6 0 -7 -4 -12 -9 -12 -5 0 -7 9 -4 20 7 28 -2
25 -15 -5z"/>
<path d="M2926 15595 c-4 -10 -2 -14 5 -9 6 4 15 0 20 -7 5 -8 9 -9 9 -3 0 6
-6 17 -14 23 -11 9 -15 8 -20 -4z"/>
<path d="M2906 15545 c-3 -8 -1 -15 4 -15 6 0 10 7 10 15 0 8 -2 15 -4 15 -2
0 -6 -7 -10 -15z"/>
<path d="M3070 15540 c-6 -11 -7 -20 -3 -20 4 0 1 -5 -9 -10 -16 -10 -14 -50
3 -50 13 0 11 14 -3 28 -11 11 -4 16 22 14 3 0 5 13 6 29 1 34 -2 36 -16 9z"/>
<path d="M2930 15529 c-7 -11 -10 -23 -7 -25 2 -2 9 7 15 21 14 30 7 33 -8 4z"/>
<path d="M3203 15487 c4 -10 7 -24 7 -30 0 -8 3 -8 11 0 9 9 7 16 -7 30 -17
17 -18 17 -11 0z"/>
<path d="M3193 15447 c3 -18 0 -30 -9 -34 -8 -3 -14 -12 -14 -20 0 -9 -8 -22
-17 -30 -11 -9 -12 -12 -3 -7 27 13 50 36 44 45 -3 5 0 9 5 9 14 0 14 31 0 50
-8 12 -10 9 -6 -13z"/>
<path d="M7083 15364 c-5 -60 -9 -110 -9 -111 2 -3 462 -43 491 -43 26 0 27 4
40 150 l6 65 -213 18 c-117 10 -234 21 -259 24 l-46 5 -10 -108z"/>
<path d="M3020 15443 c0 -5 5 -15 10 -23 7 -12 9 -10 7 8 -1 19 -17 33 -17 15z"/>
<path d="M2990 15376 c0 -2 8 -10 18 -17 15 -13 16 -12 3 4 -13 16 -21 21 -21
13z"/>
<path d="M2849 15353 c-13 -16 -12 -17 4 -4 16 13 21 21 13 21 -2 0 -10 -8
-17 -17z"/>
<path d="M2680 15341 c0 -6 4 -13 10 -16 6 -3 7 1 4 9 -7 18 -14 21 -14 7z"/>
<path d="M2992 15330 c0 -14 2 -19 5 -12 2 6 2 18 0 25 -3 6 -5 1 -5 -13z"/>
<path d="M2956 15259 c5 -9 -124 -39 -141 -33 -7 3 -27 -2 -44 -11 -18 -9 -62
-18 -99 -22 -37 -3 -71 -9 -77 -13 -5 -5 -38 -14 -72 -20 -53 -11 -60 -15 -52
-29 5 -9 18 -56 27 -106 13 -66 22 -89 33 -88 23 3 473 94 486 98 8 3 6 27 -8
87 -10 46 -19 97 -19 115 0 25 -4 31 -19 30 -11 0 -18 -4 -15 -8z"/>
<path d="M6946 14788 c-11 -24 -30 -67 -43 -97 -13 -30 -20 -58 -16 -62 10 -8
452 -199 463 -199 6 0 38 70 87 186 3 9 -293 143 -462 210 -6 3 -19 -15 -29
-38z"/>
<path d="M2955 14504 c-121 -69 -221 -127 -223 -129 -3 -2 20 -47 49 -99 l53
-95 51 29 c27 17 128 74 223 127 94 54 172 102 172 107 0 8 -99 186 -103 186
-1 0 -101 -57 -222 -126z"/>
<path d="M6573 14184 c-37 -41 -69 -79 -70 -82 -1 -4 85 -82 190 -174 l191
-168 24 23 c13 12 47 48 75 81 l51 58 -24 20 c-14 11 -38 32 -55 46 -16 15
-88 79 -160 143 -71 63 -135 118 -142 122 -7 4 -38 -23 -80 -69z"/>
<path d="M3530 14073 c-12 -16 -59 -68 -104 -118 -46 -49 -114 -124 -151 -166
l-68 -75 -787 -139 -786 -138 -50 -64 c-27 -35 -48 -70 -48 -78 1 -8 -2 -13
-7 -12 -5 1 -19 -13 -31 -32 l-22 -34 25 6 c13 3 76 15 139 26 684 120 1230
216 1340 236 74 13 149 27 165 30 267 45 673 117 685 121 18 6 4 18 -117 99
-71 48 -86 54 -115 48 -31 -6 -32 -5 -18 13 8 10 43 50 78 89 l64 69 -34 30
c-18 16 -51 45 -73 65 -58 53 -61 54 -85 24z"/>
<path d="M2610 13976 c-180 -28 -344 -82 -505 -166 -87 -45 -208 -120 -203
-126 3 -2 595 101 1251 218 70 12 127 25 127 29 0 3 -51 17 -112 29 -139 29
-423 37 -558 16z"/>
<path d="M6068 13769 c-49 -28 -88 -54 -88 -58 0 -4 41 -77 91 -162 50 -84
103 -174 118 -199 14 -25 31 -54 37 -64 11 -18 17 -15 100 34 49 29 91 54 92
56 6 4 -250 444 -258 444 -3 0 -44 -23 -92 -51z"/>
<path d="M4059 13663 c-37 -87 -83 -188 -88 -195 -6 -6 -257 -53 -601 -113
-85 -14 -187 -33 -227 -41 -40 -8 -81 -14 -93 -14 -11 0 -20 -4 -20 -10 0 -5
-6 -7 -14 -4 -7 3 -78 -7 -157 -21 -79 -14 -171 -31 -204 -36 -33 -6 -159 -28
-280 -50 -121 -22 -233 -42 -250 -44 -16 -2 -104 -17 -195 -33 -91 -17 -250
-45 -355 -63 -104 -18 -195 -36 -202 -41 -9 -8 -40 -91 -68 -183 -2 -7 11 -9
31 -7 19 2 34 8 34 12 0 5 9 6 20 3 11 -3 26 0 33 6 8 6 16 8 19 5 5 -4 116
13 255 40 11 3 43 8 70 12 26 3 52 9 58 12 5 3 19 6 30 7 66 4 76 6 71 14 -4
5 3 7 13 4 10 -3 81 7 157 20 77 14 198 36 271 48 73 12 130 25 128 28 -1 3
11 7 28 7 36 2 83 8 148 20 24 4 47 7 52 6 4 -1 7 2 7 7 0 5 8 7 18 5 9 -2 76
7 147 21 138 26 163 31 237 41 27 3 51 10 54 15 3 5 9 7 14 4 15 -9 150 17
143 27 -3 6 3 7 15 4 19 -7 190 18 222 31 8 3 18 6 22 5 3 -1 65 9 137 21 72
13 132 19 133 15 2 -5 47 -29 101 -53 l98 -44 30 65 c16 36 29 70 29 75 0 5 5
9 10 9 6 0 10 6 10 14 0 7 29 80 65 161 36 81 64 149 62 151 -5 5 -186 84
-193 84 -3 0 -14 -21 -25 -47z m-366 -410 c-7 -2 -19 -2 -25 0 -7 3 -2 5 12 5
14 0 19 -2 13 -5z m-902 -171 c-7 -2 -18 1 -23 6 -8 8 -4 9 13 5 13 -4 18 -8
10 -11z m-494 -58 c-3 -3 -12 -4 -19 -1 -8 3 -5 6 6 6 11 1 17 -2 13 -5z
m-894 -161 c-7 -2 -19 -2 -25 0 -7 3 -2 5 12 5 14 0 19 -2 13 -5z"/>
<path d="M5467 13535 c-53 -12 -100 -25 -104 -29 -4 -3 1 -39 10 -79 9 -39 33
-150 54 -244 20 -95 42 -173 47 -173 6 0 53 9 104 21 63 15 92 26 92 36 0 12
-97 469 -103 483 -1 3 -46 -4 -100 -15z"/>
<path d="M4700 13494 c0 -11 -11 -125 -25 -254 -13 -129 -21 -238 -17 -242 11
-10 199 -21 205 -12 3 5 15 106 26 224 12 118 24 229 26 246 l5 32 -67 6 c-38
4 -87 9 -110 13 -37 5 -43 3 -43 -13z"/>
<path d="M4224 13104 c23 -22 20 -37 -4 -24 -11 6 -20 7 -20 1 0 -9 23 -21 40
-21 5 0 8 13 7 30 -1 22 -7 30 -20 30 -17 0 -17 -1 -3 -16z"/>
<path d="M4262 13087 c0 -26 6 -40 19 -48 10 -5 19 -16 19 -24 0 -8 5 -15 10
-15 15 0 -7 40 -26 47 -8 3 -14 9 -14 15 0 5 5 6 10 3 14 -8 12 5 -4 35 -14
24 -14 24 -14 -13z"/>
<path d="M8530 13100 c-11 -11 -20 -29 -20 -40 0 -11 9 -29 20 -40 11 -11 29
-20 40 -20 11 0 29 9 40 20 11 11 20 29 20 40 0 11 -9 29 -20 40 -11 11 -29
20 -40 20 -11 0 -29 -9 -40 -20z"/>
<path d="M4156 13098 c7 -11 32 -10 39 2 3 6 -4 9 -19 8 -13 -1 -22 -6 -20
-10z"/>
<path d="M4084 13084 c-10 -8 -13 -12 -5 -8 8 4 12 3 8 -2 -3 -6 -2 -16 4 -24
7 -13 9 -12 9 3 0 14 9 17 48 18 34 0 41 3 27 8 -11 5 -26 6 -34 3 -9 -3 -12
-1 -7 6 11 18 -27 15 -50 -4z"/>
<path d="M4038 13083 c7 -3 16 -2 19 1 4 3 -2 6 -13 5 -11 0 -14 -3 -6 -6z"/>
<path d="M8210 13070 c-26 -26 -25 -50 0 -78 26 -27 54 -28 80 -2 27 27 26 65
-2 84 -30 21 -54 20 -78 -4z"/>
<path d="M3990 13070 c0 -5 15 -10 33 -10 18 0 38 -5 45 -12 9 -9 12 -9 12 0
0 6 -17 16 -37 21 -47 13 -53 13 -53 1z"/>
<path d="M3875 13055 l-50 -12 70 2 c39 1 73 3 78 4 14 2 7 18 -8 18 -8 0 -15
-4 -15 -9 0 -4 -8 -8 -17 -8 -15 0 -16 2 -3 10 19 12 8 11 -55 -5z"/>
<path d="M4120 13051 c0 -5 9 -7 20 -4 11 3 20 7 20 9 0 2 -9 4 -20 4 -11 0
-20 -4 -20 -9z"/>
<path d="M4176 13049 c3 -6 15 -8 26 -6 11 3 27 -2 39 -14 15 -15 19 -16 19
-4 0 9 -12 20 -26 25 -34 13 -67 13 -58 -1z"/>
<path d="M7892 13048 c-34 -44 -10 -100 43 -100 50 0 74 62 37 95 -22 20 -65
22 -80 5z"/>
<path d="M3785 13043 c-11 -2 -27 -7 -35 -10 -8 -3 -26 -5 -40 -5 l-25 2 24
-10 c29 -12 86 -3 102 16 12 14 9 15 -26 7z"/>
<path d="M4018 13043 c6 -2 18 -2 25 0 6 3 1 5 -13 5 -14 0 -19 -2 -12 -5z"/>
<path d="M3652 13010 c9 -6 38 -12 65 -15 55 -6 26 7 -42 19 -29 5 -36 4 -23
-4z"/>
<path d="M3600 13002 c24 -4 24 -5 5 -13 -16 -8 -14 -8 9 -5 17 2 40 0 52 -4
12 -5 25 -6 28 -2 8 7 -71 32 -99 30 -15 0 -14 -2 5 -6z"/>
<path d="M3533 12993 c9 -2 23 -2 30 0 6 3 -1 5 -18 5 -16 0 -22 -2 -12 -5z"/>
<path d="M3471 12973 c0 -13 2 -14 6 -4 5 11 7 11 14 0 5 -8 9 -9 9 -3 0 6 14
9 33 8 l32 -3 -30 8 c-49 14 -65 12 -64 -6z"/>
<path d="M3425 12970 c27 -12 35 -12 35 0 0 6 -12 10 -27 9 -25 0 -26 -1 -8
-9z"/>
<path d="M3710 12970 c0 -5 7 -10 16 -10 8 0 12 5 9 10 -3 6 -10 10 -16 10 -5
0 -9 -4 -9 -10z"/>
<path d="M3363 12963 c9 -2 23 -2 30 0 6 3 -1 5 -18 5 -16 0 -22 -2 -12 -5z"/>
<path d="M3578 12963 c7 -3 16 -2 19 1 4 3 -2 6 -13 5 -11 0 -14 -3 -6 -6z"/>
<path d="M3618 12963 c6 -2 18 -2 25 0 6 3 1 5 -13 5 -14 0 -19 -2 -12 -5z"/>
<path d="M3310 12950 c0 -5 7 -10 15 -10 8 0 15 5 15 10 0 6 -7 10 -15 10 -8
0 -15 -4 -15 -10z"/>
<path d="M3778 12953 c12 -2 32 -2 45 0 12 2 2 4 -23 4 -25 0 -35 -2 -22 -4z"/>
<path d="M3225 12941 c-11 -5 -23 -7 -27 -4 -5 2 -8 -3 -8 -11 0 -9 -4 -16
-10 -16 -5 0 -10 5 -10 10 0 6 -9 10 -20 10 -15 0 -20 -6 -19 -27 0 -27 1 -27
9 -5 9 21 21 31 19 15 -3 -19 2 -33 12 -33 5 0 8 4 5 9 -8 12 18 21 34 11 10
-6 8 -9 -6 -12 -10 -3 -1 -5 21 -6 22 0 63 -3 90 -6 28 -3 41 -3 30 0 -11 2
-44 9 -73 16 -47 10 -71 23 -61 32 2 2 19 7 38 11 24 5 31 4 27 -4 -4 -6 -11
-9 -15 -7 -4 3 -13 1 -21 -5 -13 -7 -13 -9 0 -9 8 0 25 3 38 6 18 5 20 9 11
20 -13 15 -33 17 -64 5z"/>
<path d="M4268 12943 c7 -3 16 -2 19 1 4 3 -2 6 -13 5 -11 0 -14 -3 -6 -6z"/>
<path d="M3988 12923 c7 -3 16 -2 19 1 4 3 -2 6 -13 5 -11 0 -14 -3 -6 -6z"/>
<path d="M4042 12916 c7 -8 15 -12 17 -11 5 6 -10 25 -20 25 -5 0 -4 -6 3 -14z"/>
<path d="M3050 12909 c-19 -4 -50 -9 -67 -11 -54 -4 -37 -14 22 -14 30 0 49 4
42 8 -7 5 -1 8 16 8 16 0 26 -4 23 -8 -2 -4 4 -8 15 -8 12 0 19 7 19 18 0 20
-14 21 -70 7z"/>
<path d="M3966 12901 c-3 -5 5 -8 18 -7 13 0 22 4 19 9 -6 10 -31 9 -37 -2z"/>
<path d="M2850 12871 c0 -5 -3 -16 -6 -24 -3 -9 3 -16 15 -20 12 -3 21 -1 21
4 0 5 -5 9 -10 9 -7 0 -7 6 0 20 9 16 8 20 -5 20 -8 0 -15 -4 -15 -9z"/>
<path d="M3810 12870 c-23 -7 -23 -8 -3 -9 12 -1 25 4 28 9 3 6 5 10 3 9 -2
-1 -14 -5 -28 -9z"/>
<path d="M3858 12873 c6 -2 18 -2 25 0 6 3 1 5 -13 5 -14 0 -19 -2 -12 -5z"/>
<path d="M2795 12850 c1 -8 10 -16 21 -17 18 -3 18 -2 -1 6 -16 8 -17 10 -3
10 9 1 20 5 23 11 3 6 -4 9 -18 8 -16 -1 -24 -8 -22 -18z"/>
<path d="M2705 12848 c-22 -5 -51 -9 -64 -10 -19 0 -21 -2 -10 -10 10 -6 2 -8
-26 -5 -22 2 -32 2 -22 0 9 -3 15 -7 13 -11 -2 -4 9 -7 24 -7 15 0 26 3 24 7
-2 3 10 11 28 16 62 19 88 23 88 12 0 -5 5 -10 10 -10 6 0 10 7 10 15 0 17
-16 17 -75 3z"/>
<path d="M3551 12844 c0 -11 3 -14 6 -6 3 7 2 16 -1 19 -3 4 -6 -2 -5 -13z"/>
<path d="M3626 12845 c-3 -9 0 -15 9 -15 9 0 12 6 9 15 -4 8 -7 15 -9 15 -2 0
-5 -7 -9 -15z"/>
<path d="M3700 12850 c-17 -6 -9 -7 25 -3 28 3 52 7 54 9 8 7 -54 2 -79 -6z"/>
<path d="M2680 12814 l-25 -15 25 5 c14 3 28 6 33 6 4 0 7 5 7 10 0 14 -10 12
-40 -6z"/>
<path d="M2730 12814 c0 -8 5 -12 10 -9 6 4 8 11 5 16 -9 14 -15 11 -15 -7z"/>
<path d="M3508 12823 c7 -3 16 -2 19 1 4 3 -2 6 -13 5 -11 0 -14 -3 -6 -6z"/>
<path d="M3588 12823 c7 -3 16 -2 19 1 4 3 -2 6 -13 5 -11 0 -14 -3 -6 -6z"/>
<path d="M8882 12814 c-43 -30 -16 -104 39 -104 23 0 49 33 49 63 0 25 -31 57
-55 57 -6 0 -21 -7 -33 -16z"/>
<path d="M2510 12812 c0 -5 7 -9 15 -9 8 0 12 4 9 9 -3 4 -9 8 -15 8 -5 0 -9
-4 -9 -8z"/>
<path d="M2760 12812 c0 -4 28 -8 63 -9 41 -2 57 0 47 7 -16 10 -110 12 -110
2z"/>
<path d="M2416 12801 c-16 -3 -31 -12 -34 -19 -5 -15 35 -8 77 14 22 12 23 14
6 13 -11 -1 -33 -4 -49 -8z"/>
<path d="M3360 12790 c0 -5 5 -10 11 -10 5 0 7 5 4 10 -3 6 -8 10 -11 10 -2 0
-4 -4 -4 -10z"/>
<path d="M8557 12782 c-42 -46 4 -118 59 -93 59 26 42 110 -22 111 -11 0 -28
-8 -37 -18z"/>
<path d="M2338 12783 c6 -2 18 -2 25 0 6 3 1 5 -13 5 -14 0 -19 -2 -12 -5z"/>
<path d="M3196 12781 c-4 -5 3 -7 14 -4 23 6 26 13 6 13 -8 0 -17 -4 -20 -9z"/>
<path d="M3280 12779 c0 -5 11 -9 25 -9 14 0 25 2 25 4 0 2 -11 6 -25 8 -14 3
-25 1 -25 -3z"/>
<path d="M2290 12770 c20 -13 33 -13 25 0 -3 6 -14 10 -23 10 -15 0 -15 -2 -2
-10z"/>
<path d="M3133 12772 c11 -16 57 -22 102 -13 39 9 39 9 -15 8 -30 -1 -64 3
-74 8 -13 6 -17 5 -13 -3z"/>
<path d="M2190 12759 c-26 -6 -21 -7 22 -3 52 5 82 -6 59 -20 -5 -4 -12 -2
-16 4 -9 14 -22 12 -22 -3 0 -21 45 -19 56 2 16 29 -25 37 -99 20z"/>
<path d="M2335 12760 c3 -5 21 -10 38 -9 31 1 31 1 7 9 -36 11 -52 11 -45 0z"/>
<path d="M8234 12745 c-20 -31 -15 -53 18 -78 25 -19 28 -19 52 -4 33 22 41
52 22 82 -22 34 -70 34 -92 0z"/>
<path d="M3098 12753 c6 -2 18 -2 25 0 6 3 1 5 -13 5 -14 0 -19 -2 -12 -5z"/>
<path d="M2118 12743 c7 -3 16 -2 19 1 4 3 -2 6 -13 5 -11 0 -14 -3 -6 -6z"/>
<path d="M2305 12741 c-6 -11 62 -27 72 -17 4 3 -6 6 -20 6 -15 0 -27 5 -27
10 0 13 -17 13 -25 1z"/>
<path d="M2050 12732 c0 -4 9 -8 20 -8 11 0 20 4 20 8 0 4 -9 8 -20 8 -11 0
-20 -4 -20 -8z"/>
<path d="M2135 12730 c-14 -5 -3 -7 33 -6 28 0 52 4 52 8 0 10 -59 9 -85 -2z"/>
<path d="M3078 12733 c7 -3 16 -2 19 1 4 3 -2 6 -13 5 -11 0 -14 -3 -6 -6z"/>
<path d="M7913 12714 c-15 -24 -15 -29 -2 -53 20 -36 71 -41 93 -9 21 29 20
51 -2 71 -28 26 -69 21 -89 -9z"/>
<path d="M1998 12723 c7 -3 16 -2 19 1 4 3 -2 6 -13 5 -11 0 -14 -3 -6 -6z"/>
<path d="M3018 12723 c6 -2 18 -2 25 0 6 3 1 5 -13 5 -14 0 -19 -2 -12 -5z"/>
<path d="M1940 12709 c0 -6 -12 -8 -32 -5 -32 6 -32 5 -6 -5 21 -8 33 -7 55 5
26 14 27 15 6 16 -13 0 -23 -5 -23 -11z"/>
<path d="M2418 12713 c12 -2 32 -2 45 0 12 2 2 4 -23 4 -25 0 -35 -2 -22 -4z"/>
<path d="M2711 12705 c-21 -12 -22 -13 -5 -17 14 -4 10 -7 -16 -15 -21 -7 -27
-11 -15 -12 25 -1 50 14 50 31 0 7 11 15 25 19 19 5 20 7 5 7 -11 0 -31 -6
-44 -13z"/>
<path d="M7618 12709 c-55 -31 -34 -108 28 -109 26 0 54 30 54 56 0 42 -48 73
-82 53z"/>
<path d="M2598 12703 c7 -3 16 -2 19 1 4 3 -2 6 -13 5 -11 0 -14 -3 -6 -6z"/>
<path d="M2770 12700 c-23 -7 -23 -8 -3 -9 12 -1 27 -3 35 -4 7 -2 10 -2 5 0
-4 3 -5 9 -1 14 6 10 -1 10 -36 -1z"/>
<path d="M4080 12696 c7 -7 13 -7 20 0 6 6 3 10 -10 10 -13 0 -16 -4 -10 -10z"/>
<path d="M1830 12696 c0 -3 7 -12 16 -20 8 -9 11 -16 5 -16 -5 0 -17 7 -25 16
-15 14 -27 14 -144 -6 -70 -12 -129 -24 -131 -26 -2 -2 30 -3 71 -1 42 1 71 5
66 8 -5 3 5 9 22 13 49 9 60 8 60 -10 0 -8 4 -13 10 -9 5 3 7 12 3 20 -3 8 0
15 6 15 6 0 11 -4 11 -9 0 -12 48 -23 71 -16 11 4 17 11 14 16 -7 11 -3 11 20
3 13 -5 14 -8 3 -15 -9 -6 -6 -9 10 -9 14 0 21 4 16 11 -12 20 -104 51 -104
35z"/>
<path d="M1960 12680 c0 -5 5 -10 10 -10 6 0 10 5 10 10 0 6 -4 10 -10 10 -5
0 -10 -4 -10 -10z"/>
<path d="M3978 12683 c7 -3 16 -2 19 1 4 3 -2 6 -13 5 -11 0 -14 -3 -6 -6z"/>
<path d="M2628 12673 c-24 -6 -23 -22 0 -20 10 0 19 7 19 14 0 7 -1 12 -1 12
-1 -1 -9 -3 -18 -6z"/>
<path d="M2748 12673 c7 -3 16 -2 19 1 4 3 -2 6 -13 5 -11 0 -14 -3 -6 -6z"/>
<path d="M3918 12673 c6 -2 18 -2 25 0 6 3 1 5 -13 5 -14 0 -19 -2 -12 -5z"/>
<path d="M1720 12650 c-18 -12 -2 -12 25 0 13 6 15 9 5 9 -8 0 -22 -4 -30 -9z"/>
<path d="M2568 12643 c7 -3 16 -2 19 1 4 3 -2 6 -13 5 -11 0 -14 -3 -6 -6z"/>
<path d="M1465 12631 c-11 -5 -27 -7 -35 -4 -8 2 0 -4 18 -12 37 -17 72 -12
72 11 0 15 -23 17 -55 5z m40 -11 c-3 -5 -10 -10 -16 -10 -5 0 -9 5 -9 10 0 6
7 10 16 10 8 0 12 -4 9 -10z"/>
<path d="M1938 12633 c12 -2 32 -2 45 0 12 2 2 4 -23 4 -25 0 -35 -2 -22 -4z"/>
<path d="M2220 12620 c0 -5 5 -10 11 -10 5 0 7 5 4 10 -3 6 -8 10 -11 10 -2 0
-4 -4 -4 -10z"/>
<path d="M2438 12623 c6 -2 18 -2 25 0 6 3 1 5 -13 5 -14 0 -19 -2 -12 -5z"/>
<path d="M1350 12613 c-19 -3 -40 -9 -46 -14 -6 -5 -20 -7 -30 -3 -16 5 -16 4
-4 -5 8 -6 10 -11 5 -11 -6 0 -11 -10 -12 -22 l-1 -23 10 22 c14 28 65 46 115
39 21 -3 29 -3 19 0 -15 5 -16 8 -5 15 15 10 16 10 -51 2z"/>
<path d="M2340 12610 c-17 -6 -9 -7 25 -3 28 3 52 7 54 9 8 7 -54 2 -79 -6z"/>
<path d="M2188 12603 c7 -3 16 -2 19 1 4 3 -2 6 -13 5 -11 0 -14 -3 -6 -6z"/>
<path d="M2285 12600 c-3 -5 -1 -10 4 -10 6 0 11 5 11 10 0 6 -2 10 -4 10 -3
0 -8 -4 -11 -10z"/>
<path d="M1340 12579 c0 -5 5 -7 11 -3 6 3 15 0 20 -7 7 -11 9 -10 9 4 0 10
-8 17 -20 17 -11 0 -20 -5 -20 -11z"/>
<path d="M2157 12579 c7 -7 15 -10 18 -7 3 3 -2 9 -12 12 -14 6 -15 5 -6 -5z"/>
<path d="M1305 12570 c-3 -5 1 -10 9 -10 9 0 16 5 16 10 0 6 -4 10 -9 10 -6 0
-13 -4 -16 -10z"/>
<path d="M1430 12570 c0 -12 17 -12 45 0 17 7 15 9 -12 9 -18 1 -33 -3 -33 -9z"/>
<path d="M2108 12563 c7 -3 16 -2 19 1 4 3 -2 6 -13 5 -11 0 -14 -3 -6 -6z"/>
<path d="M1961 12556 c9 -10 59 -14 54 -5 -4 5 -18 9 -32 9 -15 0 -24 -2 -22
-4z"/>
<path d="M2058 12553 c7 -3 16 -2 19 1 4 3 -2 6 -13 5 -11 0 -14 -3 -6 -6z"/>
<path d="M1830 12540 c-18 -12 -2 -12 25 0 13 6 15 9 5 9 -8 0 -22 -4 -30 -9z"/>
<path d="M1928 12538 c6 -6 18 -8 28 -6 14 3 12 5 -9 10 -19 3 -25 2 -19 -4z"/>
<path d="M1253 12493 c-1 -33 0 -35 8 -15 5 13 5 30 1 38 -5 9 -8 1 -9 -23z"/>
<path d="M1873 12523 c9 -2 23 -2 30 0 6 3 -1 5 -18 5 -16 0 -22 -2 -12 -5z"/>
<path d="M1741 12516 c2 -2 18 -6 34 -10 22 -5 26 -4 15 4 -14 9 -59 15 -49 6z"/>
<path d="M1828 12513 c7 -3 16 -2 19 1 4 3 -2 6 -13 5 -11 0 -14 -3 -6 -6z"/>
<path d="M8902 12485 c-12 -15 -18 -34 -15 -45 6 -22 40 -50 60 -50 20 0 53
38 53 60 0 25 -34 60 -59 60 -11 0 -28 -11 -39 -25z"/>
<path d="M1546 12471 c-4 -5 1 -8 9 -7 21 3 31 16 12 16 -9 0 -18 -4 -21 -9z"/>
<path d="M8587 12462 c-20 -22 -22 -63 -5 -80 17 -17 64 -15 82 4 21 21 20 57
-2 77 -24 22 -55 21 -75 -1z"/>
<path d="M1352 12461 c-10 -6 -5 -12 18 -21 17 -7 33 -10 36 -8 3 3 -7 9 -21
12 -14 4 -23 11 -20 16 7 12 4 12 -13 1z"/>
<path d="M1477 12459 c7 -7 15 -10 18 -7 3 3 -2 9 -12 12 -14 6 -15 5 -6 -5z"/>
<path d="M1252 12430 c0 -14 2 -19 5 -12 2 6 2 18 0 25 -3 6 -5 1 -5 -13z"/>
<path d="M1273 12435 c0 -8 4 -15 9 -15 4 0 8 4 8 9 0 6 -4 12 -8 15 -5 3 -9
-1 -9 -9z"/>
<path d="M8267 12432 c-46 -50 13 -114 74 -82 22 12 27 68 7 88 -18 18 -63 14
-81 -6z"/>
<path d="M2558 12433 c7 -3 16 -2 19 1 4 3 -2 6 -13 5 -11 0 -14 -3 -6 -6z"/>
<path d="M1308 12423 c6 -2 18 -2 25 0 6 3 1 5 -13 5 -14 0 -19 -2 -12 -5z"/>
<path d="M7963 12417 c-41 -18 -41 -76 -1 -98 50 -27 105 29 74 76 -18 27 -44
35 -73 22z"/>
<path d="M7631 12374 c-12 -15 -21 -31 -21 -36 0 -15 48 -58 65 -58 21 0 55
36 55 60 0 25 -34 60 -59 60 -11 0 -29 -12 -40 -26z"/>
<path d="M2108 12353 c7 -3 16 -2 19 1 4 3 -2 6 -13 5 -11 0 -14 -3 -6 -6z"/>
<path d="M1598 12263 c7 -3 16 -2 19 1 4 3 -2 6 -13 5 -11 0 -14 -3 -6 -6z"/>
<path d="M8929 12169 c-20 -20 -19 -48 3 -76 17 -21 65 -15 82 9 21 30 20 44
-4 68 -26 26 -55 25 -81 -1z"/>
<path d="M8611 12146 c-7 -8 -11 -30 -9 -48 2 -25 9 -35 31 -42 34 -12 58 0
71 37 8 21 6 31 -9 47 -21 23 -67 26 -84 6z"/>
<path d="M8309 12126 c-49 -24 -28 -106 27 -106 30 0 58 42 50 73 -8 32 -46
49 -77 33z"/>
<path d="M7979 12089 c-47 -47 11 -121 67 -85 32 21 33 69 2 90 -30 21 -44 20
-69 -5z"/>
<path d="M7660 12060 c-11 -11 -20 -28 -20 -38 0 -41 69 -69 98 -40 18 18 14
63 -6 81 -25 22 -48 21 -72 -3z"/>
<path d="M8643 11828 c-41 -49 10 -119 65 -89 45 24 28 94 -24 99 -17 2 -36
-3 -41 -10z"/>
<path d="M8339 11807 c-34 -18 -34 -76 0 -93 31 -16 64 -4 75 29 16 44 -32 85
-75 64z"/>
<path d="M8012 11774 c-27 -18 -29 -55 -4 -77 24 -22 55 -21 75 1 22 25 21 48
-3 72 -24 24 -38 25 -68 4z"/>
<path d="M4414 10793 c4 -54 16 -388 27 -743 12 -355 24 -649 28 -653 4 -4 15
-5 25 -1 15 6 17 19 11 133 -8 177 -45 1256 -45 1314 0 44 -2 47 -26 47 l-26
0 6 -97z"/>
<path d="M4604 10723 c3 -71 13 -346 21 -613 8 -267 18 -527 21 -577 6 -90 7
-93 30 -93 24 0 25 2 20 58 -3 31 -8 136 -11 232 -3 96 -12 353 -20 570 -8
217 -15 430 -15 473 0 76 0 77 -26 77 l-26 0 6 -127z"/>
<path d="M4230 10773 c0 -38 9 -322 20 -633 10 -311 20 -598 21 -637 2 -70 3
-73 27 -73 l25 0 -7 128 c-3 70 -13 345 -21 612 -20 647 -22 670 -46 670 -17
0 -19 -8 -19 -67z"/>
<path d="M4793 10663 c4 -71 14 -357 23 -638 9 -280 17 -511 18 -512 1 -1 12
1 25 4 l24 6 -7 181 c-4 100 -9 228 -11 286 -11 228 -25 649 -25 723 0 77 0
77 -26 77 l-27 0 6 -127z"/>
<path d="M4046 10762 c-3 -5 2 -188 9 -408 8 -219 17 -480 20 -579 4 -99 8
-198 10 -220 2 -22 4 -46 4 -52 1 -20 41 -16 41 5 0 9 -9 267 -20 572 -11 305
-20 585 -20 623 0 60 -2 67 -19 67 -11 0 -22 -4 -25 -8z"/>
<path d="M4985 10488 c3 -84 8 -189 10 -233 2 -44 7 -191 11 -327 l7 -248 25
0 25 0 -7 233 c-4 127 -9 266 -11 307 -2 41 -7 153 -11 248 l-7 172 -24 0 -24
0 6 -152z"/>
<path d="M3865 10463 c3 -76 7 -181 10 -233 2 -52 7 -204 11 -337 l7 -243 23
0 23 0 -6 128 c-3 70 -10 282 -17 472 l-11 345 -23 3 -22 3 5 -138z"/>
<path d="M5183 10213 c4 -93 6 -187 7 -210 0 -40 2 -43 26 -43 l26 0 -7 203
c-4 111 -9 205 -12 210 -2 4 -13 7 -25 7 -20 0 -20 -3 -15 -167z"/>
<path d="M3690 10198 c0 -68 3 -160 7 -205 5 -73 8 -83 25 -83 18 0 19 7 14
108 -3 59 -5 151 -5 205 -1 90 -2 97 -21 97 -19 0 -20 -7 -20 -122z"/>
<path d="M2767 9171 c-28 -88 -136 -306 -147 -295 -5 5 -24 52 -43 104 l-35
95 -12 -45 c-29 -108 28 -227 135 -282 58 -30 166 -30 220 1 94 54 137 125
136 229 0 80 -27 138 -84 187 -33 28 -116 65 -146 65 -3 0 -14 -27 -24 -59z"/>
<path d="M1377 9033 c-49 -5 -123 -45 -119 -64 1 -8 37 -110 79 -227 l77 -214
39 6 c50 8 105 37 139 73 l28 29 -69 193 c-39 106 -71 194 -73 196 -8 7 -67
11 -101 8z"/>
<path d="M282 8670 c11 -34 22 -59 24 -57 6 6 -26 106 -36 112 -5 3 0 -22 12
-55z"/>
<path d="M2 8484 l3 -139 48 -3 c30 -2 47 1 47 8 0 13 -89 262 -96 269 -3 3
-3 -58 -2 -135z"/>
<path d="M4261 8049 c-40 -8 -117 -61 -113 -78 1 -6 -4 -10 -10 -8 -7 1 -24
-20 -37 -47 -28 -56 -37 -176 -13 -184 6 -2 10 -8 7 -13 -9 -14 15 -51 30 -45
18 7 29 -10 14 -20 -8 -5 -9 -3 -4 6 5 9 4 11 -3 6 -7 -4 -12 -9 -12 -11 0 -7
106 -85 116 -85 5 0 3 4 -4 9 -11 6 -10 10 4 15 10 4 15 4 11 0 -13 -13 15
-34 45 -34 20 0 27 4 22 13 -6 10 -4 10 7 0 16 -16 46 -16 87 -2 19 6 29 15
25 22 -4 6 0 8 10 4 10 -4 28 4 47 19 26 23 28 27 15 41 -21 20 -19 26 5 13
17 -9 22 -5 40 29 43 84 17 225 -52 287 -37 34 -84 62 -73 44 6 -11 4 -11 -11
2 -24 21 -104 32 -104 15 0 -8 -3 -9 -8 -1 -4 6 -20 8 -41 3z m-121 -312 c0
-7 -4 -6 -10 3 -8 12 -10 12 -10 1 0 -8 -3 -12 -6 -8 -9 9 6 28 17 22 5 -4 9
-12 9 -18z m55 -117 c3 -6 1 -10 -4 -10 -6 0 -11 5 -11 10 0 6 -7 10 -15 10
-8 0 -15 5 -15 10 0 12 35 -4 45 -20z m105 -35 c0 -8 -7 -15 -15 -15 -13 0
-14 3 -3 15 16 18 18 18 18 0z"/>
<path d="M2894 7855 c-49 -14 -106 -54 -97 -68 3 -6 1 -7 -5 -3 -18 11 -61
-63 -73 -126 -10 -48 -9 -65 5 -110 10 -29 25 -59 34 -65 9 -7 13 -13 9 -13
-15 0 75 -80 94 -84 8 -2 22 -7 33 -11 11 -5 21 -3 26 5 6 10 8 10 12 0 5 -15
58 -23 58 -10 0 5 6 7 14 4 8 -3 29 3 48 12 18 10 40 19 48 20 21 4 78 71 97
113 25 58 21 150 -9 207 -14 27 -31 48 -37 46 -7 -1 -10 2 -7 7 7 11 -47 55
-87 70 -44 17 -119 20 -163 6z m277 -352 c13 -16 12 -17 -3 -4 -10 7 -18 15
-18 17 0 8 8 3 21 -13z m-214 -79 c-3 -3 -12 -4 -19 -1 -8 3 -5 6 6 6 11 1 17
-2 13 -5z m-97 -19 c11 -13 10 -14 -4 -9 -9 3 -16 10 -16 15 0 13 6 11 20 -6z
m54 -9 c-3 -9 -10 -13 -15 -10 -5 3 -3 11 4 19 15 16 19 13 11 -9z m43 8 c-3
-3 -12 -4 -19 -1 -8 3 -5 6 6 6 11 1 17 -2 13 -5z m67 -2 c3 -5 -8 -6 -25 -4
-16 2 -29 6 -29 8 0 8 49 4 54 -4z"/>
<path d="M8185 7749 c-28 -3 -66 -14 -85 -24 -46 -23 -91 -65 -83 -78 3 -6 1
-7 -4 -4 -16 10 -41 -35 -58 -102 -32 -123 35 -264 149 -317 61 -29 159 -32
228 -8 44 15 118 74 118 95 0 10 -88 69 -103 69 -5 0 -20 -11 -32 -24 -25 -27
-81 -42 -119 -32 -38 9 -83 53 -96 93 -28 82 13 184 82 204 48 15 104 4 135
-27 29 -29 32 -28 92 16 l43 32 -33 35 c-19 19 -45 41 -59 48 -39 20 -119 31
-175 24z"/>
<path d="M8713 7749 c-131 -24 -226 -137 -226 -269 -1 -200 184 -329 378 -263
68 23 137 93 160 162 69 208 -100 409 -312 370z m114 -139 c50 -30 68 -66 68
-135 0 -69 -18 -105 -68 -135 -122 -75 -242 74 -177 218 31 68 112 92 177 52z"/>
<path d="M9052 7738 c3 -7 49 -131 103 -276 l98 -263 61 3 60 3 33 90 c18 50
62 169 98 266 36 96 65 178 65 182 0 4 -33 7 -73 7 l-73 0 -32 -112 c-59 -202
-74 -248 -81 -248 -4 0 -21 51 -39 113 -18 61 -42 142 -54 180 l-20 67 -75 0
c-56 0 -74 -3 -71 -12z"/>
<path d="M9630 7475 l0 -275 195 0 195 0 0 60 0 60 -118 0 c-65 0 -121 2 -123
4 -2 3 -3 25 -1 50 l4 46 99 0 99 0 0 60 0 60 -98 0 c-54 0 -101 2 -103 4 -3
3 -3 23 -1 45 l4 41 117 0 116 0 -2 48 c-1 26 -2 53 -2 60 -1 9 -46 12 -191
12 l-190 0 0 -275z"/>
<path d="M10110 7476 l0 -276 70 0 70 0 0 85 0 85 35 0 c33 0 36 -4 81 -85
l48 -85 84 0 c66 0 82 3 75 13 -6 6 -33 51 -61 99 l-51 86 26 28 c81 87 67
228 -28 291 -41 27 -47 28 -196 31 l-153 3 0 -275z m263 142 c27 -21 32 -70
10 -97 -16 -20 -29 -24 -74 -24 l-54 0 -3 67 -3 66 54 0 c29 0 61 -6 70 -12z"/>
<path d="M1544 7668 c-61 -15 -133 -74 -162 -133 -28 -56 -37 -175 -14 -183 7
-2 10 -8 7 -13 -9 -14 21 -61 64 -101 47 -44 134 -73 194 -65 40 5 61 23 50
41 -3 5 -1 6 6 2 6 -4 9 -12 6 -17 -15 -23 20 -6 49 24 17 19 39 37 48 40 27
10 52 65 37 83 -10 12 -9 13 3 9 20 -8 32 64 19 116 -11 49 -35 94 -48 92 -6
-1 -10 5 -9 15 0 9 -5 16 -12 14 -8 -1 -11 2 -8 7 7 11 -18 33 -27 24 -4 -3
-7 -2 -7 4 0 14 -68 42 -115 47 -22 2 -59 -1 -81 -6z m-135 -372 c1 -6 -5 -1
-13 9 -8 11 -12 24 -8 29 5 9 20 -17 21 -38z m71 -30 c0 -2 -8 -10 -17 -17
-16 -13 -17 -12 -4 4 13 16 21 21 21 13z m187 -72 c-3 -3 -12 -4 -19 -1 -8 3
-5 6 6 6 11 1 17 -2 13 -5z m-70 -10 c-3 -3 -12 -4 -19 -1 -8 3 -5 6 6 6 11 1
17 -2 13 -5z"/>
<path d="M11020 7505 c0 -13 60 -15 480 -15 l480 0 0 -615 0 -615 -2026 0
c-1802 0 -2025 -2 -2022 -15 3 -14 231 -15 2043 -15 l2040 0 3 645 2 645 -500
0 c-438 0 -500 -2 -500 -15z"/>
<path d="M157 7466 c-54 -20 -103 -60 -131 -109 -32 -57 -36 -173 -7 -232 17
-35 91 -116 91 -100 0 4 7 -1 16 -9 19 -19 40 -22 28 -3 -5 7 -2 5 7 -4 23
-25 54 -31 117 -23 51 7 54 9 27 15 -27 7 -26 7 10 6 50 -1 74 11 54 25 -10 7
-9 8 5 4 15 -5 30 4 58 35 21 23 36 44 33 47 -3 3 0 11 6 19 32 38 28 148 -7
214 -32 57 -80 103 -101 95 -9 -4 -11 -2 -7 6 5 8 2 9 -10 5 -9 -4 -15 -3 -12
2 15 23 -117 28 -177 7z m-140 -298 c-3 -8 -6 -5 -6 6 -1 11 2 17 5 13 3 -3 4
-12 1 -19z m47 -46 c3 -5 -1 -9 -9 -9 -8 0 -15 4 -15 9 0 4 4 8 9 8 6 0 12 -4
15 -8z m0 -38 c5 -14 4 -15 -9 -4 -17 14 -19 20 -6 20 5 0 12 -7 15 -16z m202
-72 c-4 -3 -14 2 -24 12 -16 18 -16 18 6 6 13 -6 21 -14 18 -18z m84 23 c0 -7
-30 -13 -34 -7 -3 4 4 9 15 9 10 1 19 0 19 -2z"/>
<path d="M7930 6700 l0 -190 100 0 c141 0 180 23 180 105 0 37 -35 85 -61 85
-7 0 -3 9 10 21 47 44 49 113 3 149 -21 17 -40 20 -128 20 l-104 0 0 -190z
m215 145 c27 -26 32 -70 12 -96 -22 -29 -55 -39 -126 -39 l-71 0 0 80 0 80 80
0 c73 0 83 -3 105 -25z m29 -196 c17 -31 17 -38 5 -64 -20 -42 -53 -55 -141
-55 l-78 0 0 80 0 79 73 3 c99 4 119 -2 141 -43z"/>
<path d="M8406 6881 c-5 -8 -34 -76 -153 -358 -3 -7 2 -13 10 -13 10 0 24 23
39 60 l23 60 95 0 95 0 24 -60 c14 -34 30 -60 38 -60 8 0 13 4 11 9 -1 4 -37
90 -78 189 -68 166 -88 199 -104 173z m52 -104 c17 -41 34 -86 37 -100 l7 -27
-81 0 c-48 0 -81 4 -81 10 0 18 73 190 80 190 4 0 21 -33 38 -73z"/>
<path d="M8709 6867 c-98 -66 -116 -203 -37 -293 40 -45 77 -64 125 -64 43 0
121 35 137 62 19 31 -3 31 -38 0 -38 -33 -90 -48 -128 -37 -34 11 -86 52 -93
75 -4 11 -10 18 -13 16 -15 -9 -13 112 2 147 8 20 12 38 10 41 -2 3 -1 4 3 1
4 -3 19 7 34 21 35 33 103 43 146 21 17 -9 34 -13 38 -9 3 4 5 1 3 -6 -4 -16
28 -40 38 -29 9 9 -24 45 -58 63 -43 22 -129 18 -169 -9z"/>
<path d="M9027 6703 c1 -120 6 -189 13 -191 6 -2 10 19 10 55 0 56 2 61 43
100 l42 42 75 -99 c41 -55 81 -100 88 -100 16 0 12 7 -48 85 -26 33 -59 76
-73 96 l-27 36 74 79 c41 44 69 81 63 83 -6 2 -58 -46 -116 -108 -58 -61 -109
-112 -113 -111 -5 0 -8 50 -8 110 0 81 -3 110 -12 110 -10 0 -13 -43 -11 -187z"/>
<path d="M9430 6871 c-64 -34 -108 -126 -95 -202 8 -46 54 -112 98 -140 42
-26 125 -22 167 9 37 28 40 27 40 -3 0 -14 5 -25 10 -25 6 0 10 37 10 90 l0
90 -50 0 c-29 0 -50 -5 -50 -11 0 -6 10 -10 23 -9 53 5 57 2 57 -39 0 -42 -24
-68 -86 -91 -69 -27 -160 26 -184 107 -21 69 -6 130 45 180 37 38 48 43 86 43
41 0 62 -9 121 -52 25 -18 34 -1 12 23 -46 51 -139 65 -204 30z"/>
<path d="M9750 6700 c0 -160 2 -190 15 -190 11 0 15 17 17 73 l3 72 60 2 60 3
47 -75 c26 -41 54 -75 62 -75 11 0 3 19 -25 65 -23 36 -46 62 -51 59 -6 -4 -6
1 0 13 6 10 22 25 35 32 31 17 47 51 47 102 0 33 -7 48 -34 75 l-34 34 -101 0
-101 0 0 -190z m194 159 c38 -18 60 -71 46 -114 -17 -53 -43 -65 -132 -65
l-78 0 0 95 0 95 70 0 c38 0 80 -5 94 -11z"/>
<path d="M10195 6878 c-64 -35 -105 -104 -105 -175 1 -199 242 -266 330 -92
47 92 8 218 -82 265 -32 17 -115 18 -143 2z m140 -28 c60 -37 94 -121 76 -186
-48 -174 -252 -172 -292 3 -29 133 108 250 216 183z"/>
<path d="M10522 6758 c4 -143 13 -171 63 -218 23 -22 36 -25 96 -25 66 0 70 2
105 36 44 45 53 83 54 227 0 93 -3 112 -15 112 -13 0 -15 -21 -15 -128 0 -146
-13 -185 -71 -214 -42 -22 -71 -23 -114 -2 -61 29 -69 53 -73 207 -3 114 -6
137 -19 137 -13 0 -15 -19 -11 -132z"/>
<path d="M10942 6703 c2 -136 6 -187 15 -190 10 -4 13 35 15 159 l3 163 128
-160 c71 -88 135 -161 143 -163 12 -3 14 27 14 187 0 162 -2 191 -15 191 -12
0 -15 -27 -17 -162 l-3 -163 -129 163 c-71 89 -135 162 -143 162 -11 0 -13
-35 -11 -187z"/>
<path d="M11370 6700 l0 -190 83 0 c104 0 154 21 194 81 24 36 28 52 27 108 0
70 -16 111 -56 148 -36 33 -72 43 -164 43 l-84 0 0 -190z m199 150 c55 -27 85
-92 79 -166 -5 -58 -24 -93 -71 -128 -20 -15 -46 -21 -102 -23 l-75 -3 0 170
0 170 65 0 c46 0 78 -6 104 -20z"/>
<path d="M4590 6670 c-8 -5 -10 -10 -5 -10 6 0 17 5 25 10 8 5 11 10 5 10 -5
0 -17 -5 -25 -10z"/>
<path d="M4620 6660 c-9 -6 -10 -10 -3 -10 6 0 15 5 18 10 8 12 4 12 -15 0z"/>
<path d="M4356 6627 c3 -10 9 -15 12 -12 3 3 0 11 -7 18 -10 9 -11 8 -5 -6z"/>
<path d="M4680 6620 c0 -5 5 -10 11 -10 5 0 7 5 4 10 -3 6 -8 10 -11 10 -2 0
-4 -4 -4 -10z"/>
<path d="M4325 6609 c-4 -6 -5 -12 -2 -15 2 -3 7 2 10 11 7 17 1 20 -8 4z"/>
<path d="M4761 6444 c0 -11 3 -14 6 -6 3 7 2 16 -1 19 -3 4 -6 -2 -5 -13z"/>
<path d="M1925 6260 c6 -30 16 -40 12 -12 -2 12 -6 24 -10 28 -3 4 -4 -4 -2
-16z"/>
<path d="M1616 6235 c-9 -14 -13 -25 -8 -25 5 0 14 11 20 25 6 14 10 25 8 25
-2 0 -11 -11 -20 -25z"/>
<path d="M527 6099 c7 -7 15 -10 18 -7 3 3 -2 9 -12 12 -14 6 -15 5 -6 -5z"/>
<path d="M264 6048 c-11 -18 -12 -48 -2 -42 5 4 7 12 4 19 -2 7 1 18 7 24 6 6
8 11 5 11 -4 0 -10 -6 -14 -12z"/>
<path d="M240 5716 c0 -2 7 -9 15 -16 9 -7 15 -8 15 -2 0 5 -7 12 -15 16 -8 3
-15 4 -15 2z"/>
<path d="M22 2882 c-33 -86 -26 -108 8 -27 32 73 35 85 22 85 -4 0 -17 -26
-30 -58z"/>
<path d="M56 2795 c-32 -79 -56 -151 -54 -160 2 -8 29 49 60 128 74 184 72
177 61 177 -5 0 -35 -65 -67 -145z"/>
<path d="M90 2711 c-50 -127 -90 -237 -88 -245 2 -11 160 363 196 465 2 5 -1
9 -6 9 -5 0 -51 -103 -102 -229z"/>
<path d="M241 2918 c-5 -13 -61 -154 -126 -315 -64 -161 -115 -299 -113 -307
2 -10 217 500 266 635 2 5 -1 9 -7 9 -7 0 -15 -10 -20 -22z"/>
<path d="M157 2537 c-86 -215 -157 -401 -157 -412 1 -11 25 39 54 110 286 702
284 695 270 695 -5 0 -80 -177 -167 -393z"/>
<path d="M373 2900 c-79 -185 -373 -927 -373 -939 1 -14 2 -14 9 -1 26 44 381
937 378 950 -3 10 -7 7 -14 -10z"/>
<path d="M431 2878 c-5 -13 -104 -259 -220 -547 -116 -289 -211 -532 -210
-540 1 -25 19 20 331 789 66 162 122 301 125 308 3 6 0 12 -6 12 -6 0 -15 -10
-20 -22z"/>
<path d="M491 2858 c-5 -13 -117 -293 -250 -623 -133 -330 -240 -608 -239
-617 2 -9 67 142 145 335 78 194 193 479 257 634 63 156 110 285 105 289 -5 3
-13 -5 -18 -18z"/>
<path d="M277 2157 c-152 -380 -277 -701 -277 -712 1 -11 19 25 41 80 22 55
92 226 154 380 321 790 375 925 375 935 0 5 -3 10 -7 10 -5 0 -133 -312 -286
-693z"/>
<path d="M560 2688 c-29 -73 -167 -416 -307 -763 -139 -346 -252 -637 -251
-645 2 -8 42 82 90 200 48 118 188 465 312 770 124 305 221 559 217 563 -4 4
-32 -52 -61 -125z"/>
<path d="M628 2688 c-20 -51 -150 -374 -288 -718 -139 -344 -261 -646 -271
-672 -10 -27 -15 -48 -10 -48 5 0 19 24 30 53 11 28 148 368 305 755 157 387
286 708 286 713 0 5 -4 9 -8 9 -5 0 -25 -42 -44 -92z"/>
<path d="M718 2734 c-4 -5 -104 -252 -224 -549 -119 -297 -252 -627 -295 -734
-44 -107 -79 -199 -79 -205 0 -28 26 29 115 249 259 639 448 1106 471 1162 15
34 24 67 22 74 -3 8 -7 9 -10 3z"/>
<path d="M656 2417 c-60 -149 -190 -472 -288 -716 -98 -245 -177 -450 -174
-455 2 -6 8 0 14 14 5 14 30 75 55 135 156 381 517 1276 517 1285 0 37 -28
-22 -124 -263z"/>
<path d="M536 1949 c-233 -581 -290 -732 -263 -698 2 2 64 153 137 334 73 182
198 490 277 684 78 195 139 359 135 363 -4 4 -133 -303 -286 -683z"/>
<path d="M846 2545 c-13 -30 -488 -1208 -513 -1272 -3 -7 -1 -13 4 -13 5 0 33
57 61 128 28 70 146 361 262 647 116 286 209 526 207 535 -2 9 -11 -2 -21 -25z"/>
<path d="M886 2475 c-44 -104 -469 -1162 -474 -1180 -3 -14 -1 -17 6 -10 6 6
90 206 187 445 97 239 201 496 231 570 78 192 76 188 71 202 -2 7 -12 -5 -21
-27z"/>
<path d="M932 2418 c-6 -15 -27 -65 -46 -110 -18 -46 -111 -274 -204 -508 -94
-234 -178 -442 -186 -462 -12 -27 -13 -36 -4 -32 7 2 30 46 50 97 20 50 121
299 223 551 102 253 184 466 182 475 -3 11 -7 8 -15 -11z"/>
<path d="M968 2340 c-33 -81 -361 -898 -377 -937 -11 -29 -17 -53 -12 -53 5 0
16 17 24 38 50 121 314 771 343 845 20 48 34 95 32 105 -3 14 -5 15 -10 2z"/>
<path d="M830 1829 c-187 -465 -177 -439 -157 -419 14 14 337 799 337 820 0
38 -34 -38 -180 -401z"/>
<path d="M11514 2124 c-37 -55 25 -117 80 -80 18 11 26 25 26 45 0 59 -75 84
-106 35z"/>
<path d="M11874 2124 c-37 -55 25 -117 80 -80 30 19 35 65 10 90 -25 25 -71
20 -90 -10z"/>
<path d="M12234 2124 c-37 -55 25 -117 80 -80 33 21 37 79 7 96 -35 18 -69 12
-87 -16z"/>
<path d="M12596 2128 c-21 -30 -20 -54 4 -78 41 -41 100 -13 100 48 0 52 -74
73 -104 30z"/>
<path d="M12960 2130 c-11 -11 -20 -29 -20 -40 0 -25 34 -60 58 -60 34 0 62
29 62 65 0 54 -60 75 -100 35z"/>
<path d="M968 2000 c-171 -419 -207 -513 -189 -495 24 25 244 568 239 592 -2
10 -24 -34 -50 -97z"/>
<path d="M942 1768 c-12 -28 -20 -53 -18 -55 2 -2 13 19 25 48 12 28 21 53 19
55 -3 2 -14 -20 -26 -48z"/>
<path d="M11517 1772 c-23 -25 -21 -58 3 -82 39 -39 100 -14 100 42 0 51 -69
78 -103 40z"/>
<path d="M11876 1768 c-18 -25 -22 -63 -6 -53 5 3 7 0 4 -9 -6 -16 23 -36 54
-36 44 0 69 71 36 104 -23 24 -70 20 -88 -6z"/>
<path d="M12240 1770 c-11 -11 -20 -29 -20 -40 0 -27 35 -60 63 -60 31 0 57
29 57 63 0 53 -61 76 -100 37z"/>
<path d="M12594 1764 c-23 -34 -9 -75 29 -88 33 -12 56 -1 74 34 32 63 -65
113 -103 54z"/>
<path d="M12960 1770 c-11 -11 -20 -29 -20 -40 0 -27 35 -60 63 -60 31 0 60
32 60 66 0 51 -65 72 -103 34z"/>
<path d="M11520 1410 c-11 -11 -20 -29 -20 -40 0 -27 35 -60 63 -60 50 0 76
70 39 103 -25 23 -58 21 -82 -3z"/>
<path d="M11876 1408 c-9 -12 -16 -29 -16 -38 0 -29 30 -60 59 -60 52 0 82 68
45 104 -23 24 -70 20 -88 -6z"/>
<path d="M12240 1410 c-11 -11 -20 -29 -20 -40 0 -27 35 -60 63 -60 50 0 76
70 39 103 -25 23 -58 21 -82 -3z"/>
<path d="M12600 1410 c-11 -11 -20 -29 -20 -40 0 -49 71 -78 103 -42 23 25 27
80 5 66 -7 -5 -8 -3 -3 6 19 31 -55 40 -85 10z"/>
<path d="M12960 1410 c-11 -11 -20 -29 -20 -40 0 -27 35 -60 64 -60 32 0 66
43 59 73 -12 48 -67 63 -103 27z"/>
<path d="M11522 1054 c-43 -30 -13 -104 41 -104 50 0 76 70 39 103 -23 21 -51
22 -80 1z"/>
<path d="M11876 1048 c-21 -30 -20 -54 4 -78 39 -39 100 -14 100 42 0 53 -74
79 -104 36z"/>
<path d="M12240 1050 c-11 -11 -20 -29 -20 -40 0 -27 35 -60 63 -60 50 0 76
70 39 103 -25 23 -58 21 -82 -3z"/>
<path d="M12596 1048 c-21 -30 -20 -54 4 -78 53 -53 135 16 89 74 -26 33 -72
35 -93 4z"/>
<path d="M12960 1050 c-11 -11 -20 -29 -20 -40 0 -27 35 -60 63 -60 30 0 44
11 56 42 8 22 6 31 -10 52 -25 31 -61 34 -89 6z"/>
<path d="M11520 690 c-11 -11 -20 -29 -20 -40 0 -27 35 -60 63 -60 50 0 76 70
39 103 -25 23 -58 21 -82 -3z"/>
<path d="M11880 690 c-24 -24 -25 -48 -4 -78 31 -45 104 -19 104 37 0 55 -61
80 -100 41z"/>
<path d="M12240 690 c-11 -11 -20 -29 -20 -40 0 -27 35 -60 64 -60 32 0 56 25
56 59 0 55 -61 80 -100 41z"/>
<path d="M12600 690 c-24 -24 -25 -48 -4 -78 26 -37 101 -22 105 21 7 65 -57
101 -101 57z"/>
<path d="M12960 690 c-11 -11 -20 -29 -20 -40 0 -27 35 -60 63 -60 31 0 51 15
42 30 -5 9 -4 11 3 6 7 -4 13 -1 13 6 6 67 -56 103 -101 58z"/>
</g>
</svg>
