<?xml version="1.0" encoding="UTF-8" standalone="no"?>
<svg
   xmlns:dc="http://purl.org/dc/elements/1.1/"
   xmlns:cc="http://creativecommons.org/ns#"
   xmlns:rdf="http://www.w3.org/1999/02/22-rdf-syntax-ns#"
   xmlns:svg="http://www.w3.org/2000/svg"
   xmlns="http://www.w3.org/2000/svg"
   viewBox="0 0 6666.6665 4000"
   height="400"
   width="100%"
   xml:space="preserve"
   id="svg2"
   version="1.1"><metadata
     id="metadata8"><rdf:RDF><cc:Work
         rdf:about=""><dc:format>image/svg+xml</dc:format><dc:type
           rdf:resource="http://purl.org/dc/dcmitype/StillImage" /></cc:Work></rdf:RDF></metadata><defs
     id="defs6" /><g
     transform="matrix(1.3333333,0,0,-1.3333333,0,4000)"
     id="g10"><g
       transform="scale(0.1)"
       id="g12"><g
         transform="scale(3.06748)"
         id="g14"><path
           id="path16"
           style="fill:#fdfcf9;fill-opacity:1;fill-rule:nonzero;stroke:none"
           d="M 16300,0 H 0 V 9780 H 16300 V 0" /></g><g
         transform="scale(1.66258)"
         id="g18"><path
           id="path20"
           style="fill:none;stroke:#aec2bd;stroke-width:60.14759827;stroke-linecap:butt;stroke-linejoin:miter;stroke-miterlimit:10;stroke-dasharray:none;stroke-opacity:1"
           d="M -763.875,16300 C 3743.57,14575.1 5086.77,12599.1 5473.43,11103.2 5874.22,9552.76 5295.47,8331.71 6255.35,6321.51 7061.99,4632.21 7949.95,4490.86 8384.58,3205.87 8750.63,2123.57 8734.94,408.043 6874.87,-2303.65" /></g><g
         transform="scale(1.61288)"
         id="g22"><path
           id="path24"
           style="fill:none;stroke:#aec2bd;stroke-width:62.00080109;stroke-linecap:butt;stroke-linejoin:miter;stroke-miterlimit:10;stroke-dasharray:none;stroke-opacity:1"
           d="M 2697.03,5394.07 C 3257.9,5035.58 4150.88,4555.69 5319.67,4321.45 7384.35,3907.66 8002.5,4722.72 9231.91,4160.25 10890.2,3401.55 10612.2,1531.05 12338.2,942.412 13380.9,586.714 13844.6,1146.08 14638.4,787.41 15393.3,446.282 16224.7,-624.905 16300,-4036.25" /></g><g
         transform="scale(1.42914)"
         id="g26"><path
           id="path28"
           style="fill:#fcd8c8;fill-opacity:1;fill-rule:nonzero;stroke:none"
           d="M -2018.69,16300 C 1187.22,15557 2516.03,14193.2 3145.25,13158.3 4809.55,10420.7 2928.41,7764.17 4915.54,5013.5 6050.33,3442.7 7072.57,3743.16 8624.06,2277.59 10049,931.471 11523.4,-1529.24 11527.9,-6426.94 6368.63,-5972.12 1209.35,-5517.3 -3949.92,-5062.48 -3306.18,2058.37 -2662.44,9179.15 -2018.69,16300" /></g><g
         transform="scale(3.06748)"
         id="g30"><path
           id="path32"
           style="fill:#aec2bd;fill-opacity:1;fill-rule:nonzero;stroke:none"
           d="m 16937.3,2713.95 c -311.3,33.38 -765.4,29.96 -1163.8,-224.94 -593.7,-379.85 -460.4,-932.2 -978,-1317.04 -684.9,-509.277 -1408.5,93.27 -2138.5,-299.92 -390,-210.041 -815.3,-722.22 -938.9,-2063.58 1751.7,-13.04 3503.4,-26.08 5255.1,-39.12 -12,1314.8561 -23.9,2629.74 -35.9,3944.6" /></g><g
         transform="scale(3.06748)"
         id="g34"><path
           id="path36"
           style="fill:#e35d3c;fill-opacity:1;fill-rule:nonzero;stroke:none"
           d="m 13973,9709.5 c -167.8,-297.64 -237.8,-646.04 -211.7,-985.9 22.6,-293.3 116.3,-576.35 270.6,-826.68 148.2,-240.54 347.2,-447.73 577.3,-611.04 229.3,-162.68 492.6,-281.13 768,-338.93 281.7,-59.13 573.1,-52.62 852.9,14.18 278.4,66.48 543.4,191.26 775.1,358.77 235,169.79 438.2,381.94 594.3,626.48 171.3,268.55 282.2,576.18 315,893.34 33.9,326.32 -28,659.71 -202.3,939.87 -148.8,239.11 -365.5,430.91 -609.3,569.51 -249.8,141.9 -528.4,230.1 -813.1,265.1 -314.2,38.7 -637.8,11 -943.6,-68.8 -311,-81.2 -608.8,-218.9 -870.2,-406 -131.7,-94.2 -257.3,-199.94 -366.7,-319.59 -113.8,-124.4 -209.9,-268.05 -254.3,-432.31 -47.8,-177.2 -37.5,-363.33 -16.6,-543.67 20.8,-178.74 43.1,-360.32 98.8,-532.11 49,-151.03 126.5,-288.51 231.4,-407.67 95.8,-108.67 211.5,-199.32 334.2,-275.61 262.8,-163.45 560.2,-265.67 853.7,-358.6 356.7,-112.92 724.8,-203.58 1100.1,-218.41 324.4,-12.83 647.7,36.2 944.4,170.79 261.1,118.4 497.2,301.18 658,540.27 82.3,122.52 142.8,260.48 175.6,404.5 41,180.13 40.8,365.86 15.3,548.12 -48,344.19 -182.3,680.57 -362.4,976.45 -172.2,282.66 -392.9,535.04 -660,731.34 -254.2,186.7 -551.1,319.7 -865.7,357.9 -157.2,19 -316.9,11.1 -471.5,-23.1 -164.2,-36.3 -321.4,-102.3 -468.1,-183.8 -147.7,-82.1 -285.4,-180.8 -417.8,-285.5 -126.5,-100.1 -248.1,-206.4 -361.8,-320.99 -223.8,-225.59 -421.1,-484.14 -543.3,-779.3 -118.3,-285.75 -149.9,-605.67 -58.7,-903.76 90.7,-296.04 286.5,-554.32 529.1,-743.6 271.3,-211.8 597.7,-340.82 931.5,-416.1 176.6,-39.83 357.2,-67.65 537.9,-80.17 184,-12.75 370.8,-6.27 551.4,33.23 273.8,59.86 526.2,199.08 734.1,385.47 211.6,189.65 376.4,428.53 485.8,690.22 109.8,262.52 158.4,549.09 136.7,833.03 -22.4,292.96 -112.1,577.83 -253,835.21 -141.3,258.26 -333.7,489.76 -560,677.86 -245.7,204.2 -533.2,363.5 -842.2,447.7 -171.8,46.8 -352.6,69.4 -530.4,54.2 -173.4,-14.7 -340.2,-64.5 -496.7,-139.7 -271.6,-130.6 -506.5,-332.8 -689.6,-570.9 -166.5,-216.6 -289.5,-466.14 -366.4,-728.02 -77.4,-263.38 -108.6,-541.96 -88.4,-815.83 20.4,-275.9 91.8,-547.1 217.7,-793.89 123.7,-242.54 300.4,-457.98 509.1,-632.26 212.5,-177.43 456.2,-314.59 717.2,-406.48 257.9,-90.79 533.7,-136.08 807.3,-128.07 301.9,8.85 591.3,87.31 863.3,217.18 160.1,76.46 312.5,168.37 459.4,267.59 136.2,91.92 270.8,188.66 390.8,301.26 114.4,107.32 216.9,232.07 282.3,375.56 71.2,155.98 97.7,327.36 86,497.99 -23.5,342.44 -172.5,666.74 -333.7,964.64 -143.2,264.79 -312,517.96 -514.3,741.53 -193.2,213.5 -422,402.7 -685.6,522.2 -267.1,121.1 -560.9,166.5 -851.2,120.1 -285.2,-45.5 -549.2,-178.8 -774.9,-356.1 -230.8,-181.3 -423,-412.7 -568.9,-666.83 -78.5,-136.96 -143.6,-282.02 -194.2,-431.58 -58.6,-172.97 -96.7,-355.97 -93.3,-539.27 5.5,-293.41 127.3,-564.42 322.8,-780.25 189.8,-209.44 436.4,-364.48 693.2,-478.3 298.4,-132.25 619.4,-215.86 942.9,-256.46 349.1,-43.8 716.4,-26.88 1047.6,100.14 274.3,105.19 519.7,283.26 696,519.17 173.9,232.76 264.3,522.69 235.6,813.34 -29.4,297.1 -169.5,567.89 -358.8,794.79 -194.5,233.21 -442.4,423.81 -710.4,565.25 -285.4,150.8 -599.9,254.8 -922.8,280.1 -313,24.6 -636.3,-34.5 -901.5,-208.6 -266.5,-174.86 -456.4,-443.06 -591.3,-727.75 -128.5,-271.36 -215.6,-564.12 -231.9,-865.05 -15.4,-284.47 38,-583.14 205,-819.45 189.1,-267.6 495.1,-418.95 810.9,-480.03 324.7,-62.79 675.5,-35.12 968.7,126.28 264,145.28 453,392.74 561.5,670.37 114.8,294 132.7,613.77 80.9,923.25 -58,346.79 -200.5,675.28 -372.4,979.92 -161.8,286.86 -351.5,570.16 -621.5,765.86 -253.8,184 -602.5,276.4 -905.8,167.4 -133.2,-48 -251.1,-132.5 -339,-243.6 -83.4,-105.6 -140.8,-228.6 -177.5,-357.7 -76.8,-270.8 -69.1,-559.19 -25.9,-834.9 45.2,-288.51 133.4,-576.71 286.4,-827.04 157,-256.55 396.5,-484.52 691.7,-567.97 85.4,-24.14 175.7,-34.13 264.1,-24.68 91.7,9.81 179.7,35.32 264.8,70.53 144.3,59.75 281.5,137.68 407.2,230.48 239.8,177.14 444.5,410.56 546.6,693.97 103.6,287.37 74.8,599.14 -57.9,871.88 -134.1,275.83 -365,500.63 -635.9,641.73 -301.9,157.3 -644.3,220.4 -982.5,223.7 -161.8,1.6 -325.3,-8 -484.8,-36.6 -146.4,-26.3 -293.2,-72.1 -419.2,-153 -137.6,-88.5 -236,-215.3 -296.5,-366.7 -61.4,-153.9 -84.4,-324.75 -87.4,-489.68 -6.1,-333.8 83.7,-664.33 232.7,-961.39 143.4,-285.86 344,-554.72 596.8,-752.77 247.8,-194.09 551.9,-317.55 870.6,-274.67 322.5,43.39 608.5,236.3 824.6,472.09 220.3,240.34 382.3,533.88 468.7,848.23 88.1,320.28 119.6,695.43 -68.3,987.09 -163.3,253.3 -445.8,411 -742.5,442.8 -332.6,35.7 -674,-83.4 -938,-282.4 -248.6,-187.3 -440.7,-444.6 -544.1,-738.67 -104.8,-298.16 -106.7,-629.09 -7,-928.93 101,-303.62 301.5,-557.51 568.9,-732.09 260.7,-170.21 566.9,-262.53 872.2,-311.37 78,-12.48 156.5,-22.41 235.2,-29.94 93.5,-8.96 188,-14.01 281.6,-2.45 136.8,16.91 262.2,69.38 369.1,156.41 196.4,159.8 300.2,413.89 341.9,657.72 48.8,285.35 14.8,573.89 -62.4,851.25 -85.3,306.41 -227.2,598.15 -416.4,853.84 -95.9,129.63 -202.9,250.93 -321.4,360.43 -121.7,112.5 -271.3,220.7 -443,228.7 -176,8.3 -311.1,-112.8 -416.2,-240 -101.3,-122.5 -181.6,-259.5 -240.1,-407.19 -113.7,-287.05 -136.7,-617.38 -37.6,-912.06 92.4,-274.92 284.6,-515.38 533.2,-665.03 246.9,-148.6 542.3,-194.96 821,-117.99 269,74.31 515,254.44 646.7,503.22 131.6,248.42 132.8,545.3 28.7,803.72 -103.6,256.84 -300.4,480.53 -555,595.03 -275.8,124.1 -592.6,129.6 -879,38.5 -294.3,-93.6 -544.4,-283.52 -719.4,-537.21 -175.9,-255.1 -270,-563 -287.1,-871.14 -18,-321.55 42.7,-673.86 242.7,-934.54 189.5,-247.05 522.8,-401.23 829.2,-290.39 281.3,101.75 473.9,375.36 530,662.33 35.7,182.3 26.3,368.68 -6.9,550.59 -29.8,163.78 -75.5,327.99 -139.3,481.92 -106.3,256.37 -293.4,523.52 -597.6,536.84 -174.9,7.65 -343.9,-72.37 -484.4,-169.95 -125.6,-87.19 -236.3,-193.27 -329.8,-314.13 -187.1,-242.06 -302,-538.02 -321.5,-843.8 -19.2,-300.84 62.1,-605.13 217.4,-862.55 159.2,-264.11 398.9,-486.26 686,-603.23 152.7,-62.16 321.9,-90.78 485.2,-60.55 152.2,28.17 286.2,115.99 383.4,234.97 96.5,118.16 161.7,257.58 210.4,401.37 55.7,164.05 92.4,334.01 114.6,505.69 44.3,344 21.1,697.18 -66.3,1032.79 -42.9,164.47 -101.4,325.62 -175.8,478.49 -67.4,138.47 -150.8,270.78 -255.8,383.94 -103.3,111.26 -229.8,202.36 -373.5,253.46 -123.4,43.8 -256.1,52 -385.2,33.6 -258.3,-37 -499.1,-188.1 -658.4,-392.86 -81.9,-105.19 -144.8,-225.24 -177.4,-354.94 -35.3,-140.65 -37.2,-287.93 -13.7,-430.59 47.3,-287.33 205.9,-553.96 418.7,-750 237.5,-218.7 541.5,-340.34 860.1,-377.44 335.5,-39.05 681.2,16.67 995.8,135.63 146.9,55.54 291.7,122.99 412.3,225.25 124.4,105.39 204.2,247.96 218.8,411.14 15.1,168.78 -39.5,338.32 -113.1,488.02 -66.4,135.2 -153.1,261.02 -249.1,376.8 -186.3,224.57 -420,410.52 -677.8,546.59 -260.8,137.7 -546.5,225.2 -840,254.5 -143.7,14.4 -289,14 -432.5,-2.4 -165.7,-18.9 -330.8,-56.4 -479.4,-134.4 -141.7,-74.3 -258.5,-187.6 -337.2,-326.9 -76.4,-135.1 -117.4,-287.75 -129.8,-441.9 -28.6,-354.17 107.2,-699.52 261.6,-1010.88 132,-266.15 298.9,-528.57 541.6,-706.83 123.2,-90.52 267,-152.94 418.6,-175.22 187.2,-27.52 375.3,-3.93 560.1,30.17 266.4,49.18 536.7,128.7 766,277 109.9,71.1 209.2,158.79 283.9,266.93 78.5,113.66 122.4,248.9 127.3,386.85 6.6,184.71 -55.6,363.83 -131.2,529.59 -67.3,147.5 -145.4,290.89 -229.6,429.35 -163.4,268.57 -359.1,521.84 -597.4,728.24 -235.1,203.5 -509,359.5 -812.6,432.3 -291.8,70.1 -607.3,69 -891.9,-32.1 -289.9,-103 -527.6,-307.3 -680.5,-573.7 -154.8,-269.54 -222.7,-585.63 -209.8,-895.08 14.8,-354.8 126.4,-698.35 284.1,-1014.24 140,-280.37 315.5,-554.46 551,-764.43 114.1,-101.66 241.7,-186.18 383.4,-243.93 154.3,-62.89 322.5,-85.94 488.3,-73.96 181.9,13.12 358.9,62.77 528,129.18 151,59.31 298.3,129.44 439.5,209.34 265.2,150.04 514.4,338.81 708.3,575.43 184.6,225.22 317.3,489.4 355.6,779.83 34.6,262.55 -4.2,536.86 -120.9,775.4 -122.4,250.37 -336,442.21 -602.8,526.66 -323.7,102.4 -676.3,46.2 -982.7,-85.44 -158.8,-68.22 -308,-156.98 -450.1,-254.89 -143.3,-98.64 -282.6,-204.91 -415.8,-316.64 -127.6,-106.96 -250.3,-228.65 -327.2,-378.2 -72.9,-141.47 -104.6,-310.01 -64.8,-466.07 20.2,-79.53 60.8,-151.67 116.1,-212.09 56.9,-62.2 127.5,-110.98 198.2,-155.99 137.3,-87.32 280.6,-165.23 428.2,-233.49 298.1,-137.85 613.1,-237.92 936.2,-296.85 323.2,-58.94 653.5,-78.78 981.3,-55.96 276.4,19.24 550.9,67.78 816.5,146.63 60.2,17.87 34.6,112.29 -26,94.31 -300.7,-89.27 -611.9,-139.39 -925.4,-150.15 -313.4,-10.76 -627.8,16.65 -934.6,82.06 -306.6,65.38 -605.6,167.47 -886.6,306.5 -140.1,69.29 -279.3,145.85 -407.2,235.94 -61.8,43.58 -120.7,95.14 -159.7,160.8 -35.7,60.13 -53.6,129.03 -56.1,198.68 -12,326.57 253.5,557.3 487.7,741.54 259.5,204.12 534.8,402.75 849.4,512.07 289.8,100.74 627.4,123.24 910.6,-11.54 223.2,-106.32 385.6,-302.72 470.7,-531.02 86.9,-233.25 102.4,-491.15 48.9,-732.26 -59.8,-269.44 -209.8,-512.31 -397.5,-711.77 -201,-213.49 -445.6,-381.44 -704.9,-516.1 -289.7,-150.38 -615.8,-284.85 -948.1,-270.21 -296.5,13.06 -554.9,168.67 -757.2,377.76 -212.6,219.7 -372.6,491.22 -498.3,768.31 -137.5,303.04 -227,634.58 -219.5,969.24 6.4,287.83 88.7,576.76 250.5,816.23 159.5,235.9 397.2,402.7 672.1,475.6 275.2,72.9 569.8,55 840.6,-27.9 280.5,-86 530.7,-248.2 742.9,-448.8 220.3,-208.22 399.9,-455.21 551.5,-716.87 79.8,-137.77 156.9,-280.03 216.3,-427.92 61.9,-154.07 106.4,-324.27 75.5,-490.77 -44.8,-240.26 -222.6,-412.62 -431.3,-528.54 -236.9,-131.54 -507.3,-198.5 -773.9,-239.08 -170.2,-25.9 -347.9,-34.82 -515.1,13.24 -130,37.37 -248.2,108.01 -349.2,197.31 -218,192.71 -363.6,454.73 -484.8,715.45 -136.1,292.62 -245.4,622.54 -189.1,948.71 24.3,140.66 76,276.1 161.6,391.09 88.6,118.98 216.3,202.98 354.5,253.48 142.2,51.9 293.9,75.5 444.7,83.2 137.4,7 276.1,0.4 412.1,-20.7 275.3,-42.8 541.2,-138.7 781.2,-280.22 236.4,-139.35 449.3,-323.13 615,-542.45 88.4,-116.99 169.2,-244.68 222.6,-381.65 56.1,-143.33 87.3,-303.9 39.3,-454.03 -43.3,-135.63 -150.2,-236.84 -268.4,-310.08 -129.5,-80.22 -274.5,-135.9 -419.8,-179.91 -305.5,-92.52 -635.3,-124.04 -949.7,-59.85 -288.9,58.98 -551.6,198.22 -750,417.8 -180.1,199.37 -303.8,459.37 -315.7,729.72 -5.7,129.95 13.3,260.6 63.3,381.11 45.4,109.66 117.6,212.11 203.1,296.73 169.8,168.13 403.9,278.23 642.5,273.33 123.4,-2.5 242.9,-39.1 350.4,-104.5 121.5,-73.92 222,-179.38 302.8,-295.67 180.1,-259.33 287,-572.13 343.3,-880.83 59.1,-324.11 56.5,-661.08 -8.6,-984.07 -30.4,-151.01 -71.6,-303.38 -135.1,-444.12 -56.2,-124.46 -131.7,-246.61 -241.6,-330.65 -251.8,-192.56 -593,-105.13 -839.4,50.3 -240.6,151.84 -428.4,380.03 -542.5,639.76 -113.9,259.12 -146.5,551.44 -88.5,828.61 58.6,279.63 200,540.36 403.9,740.62 195.4,191.8 512.9,398.94 786.4,250.95 110.3,-59.68 191.6,-161.22 253.7,-269.68 70.2,-122.9 116.6,-256.79 155.3,-392.48 88.4,-310.15 136.6,-666.51 -16,-965.26 -122,-239.05 -362.3,-426.71 -641.7,-391.2 -141.5,17.98 -275.1,89.33 -378.4,185.87 -112.3,104.87 -190.3,241.58 -239,386.42 -95.5,284.36 -97.7,602.56 -27,892.72 69.1,283.09 212.6,549.43 429.7,746.19 205.6,186.3 478.9,301.62 755.8,319.32 270.5,17.2 544.3,-59.4 748.4,-241.88 190.1,-169.86 319.5,-414.78 338.6,-667.63 9.7,-129.09 -7.8,-255.49 -57.2,-375.76 -48.5,-117.95 -127.5,-222.67 -222.1,-307.81 -192.5,-173.14 -456.1,-265.96 -713.5,-248.09 -266.7,18.51 -515,161.36 -691.2,359.29 -185.8,208.88 -285.9,479.14 -285.4,758.28 0.5,294.42 105.5,585.48 283.7,818.9 84.7,110.8 198.8,242.6 349.5,246.4 155.2,4 293.9,-102.7 401.9,-202.8 224.1,-207.8 407.5,-456.77 542.8,-730.67 130.9,-264.94 221.1,-559.7 245.1,-854.98 19.6,-242.05 -12.8,-497.35 -117.4,-714.81 -50.3,-104.52 -112.7,-194.55 -200.4,-269.91 -38.5,-33.13 -86.7,-64.52 -137,-88.35 -52.4,-24.9 -119.1,-44.13 -181.7,-52.04 -89,-11.27 -179.7,-6.15 -268.8,2.15 -74,6.9 -147.8,16.01 -221.2,27.83 -148.5,23.91 -295.7,57.99 -438.2,106.28 -276.6,93.71 -536.4,247 -720.8,477.15 -185,230.94 -281,530.49 -280.5,825.05 0.6,294.39 103,579.83 275.6,816.91 176.8,242.79 431,433.39 717.9,524.29 286,90.6 600.1,76.7 859.2,-82.8 113.8,-70 213,-165.2 282.4,-279.86 82.4,-136.07 113.3,-292.59 112.3,-450.38 -2.2,-313.18 -101.7,-629.41 -256.6,-899.81 -151.9,-265.16 -366.4,-504.62 -633.9,-656.44 -128.9,-73.13 -272.3,-125.89 -420.6,-139.59 -144.7,-13.37 -288.4,9.47 -424.1,60.82 -273.6,103.53 -502.9,315.01 -677.1,545.4 -191.7,253.61 -336.7,544.31 -408.3,854.8 -35.2,152.54 -51.4,308.96 -45.8,465.49 5.6,154.2 29.2,315.27 93.1,456.97 60.7,134.7 158.4,240.7 287.5,312.2 124.3,68.9 265,104.1 404.7,124.7 152.3,22.5 308.6,27.8 462.3,23 159.5,-4.9 318.4,-23.8 473.6,-61.3 297.5,-72 576.6,-213.5 786,-439.7 190,-205.03 320.7,-474.53 325,-757.22 4.2,-276.94 -116.4,-538.01 -296,-744.11 -93.1,-106.75 -200.3,-201.03 -316.8,-281.36 -124.1,-85.57 -260,-161.9 -402.8,-211.15 -79.7,-27.47 -162.3,-45.58 -246.9,-44.2 -82.9,1.35 -164,21.52 -240.8,51.92 -132,52.26 -251.9,138.73 -352,238.51 -195.5,194.67 -320.9,449.25 -399.3,711.23 -77.7,259.97 -119.1,536.46 -104.5,808.01 13.1,243.97 76.1,506.37 246.3,688.07 91,97.2 207.6,164.6 338.8,194.3 143.8,32.5 295.3,18.5 435.3,-24.6 297.2,-91.5 524.5,-321.4 698.7,-570.3 92.3,-132 174.6,-271.45 250.3,-413.56 78.8,-148.11 149.2,-300.89 204.9,-459.28 104.2,-296.15 161.3,-617.59 114.7,-930.87 -40.7,-273.29 -150.7,-541.96 -340.6,-745.71 -206.8,-221.91 -495,-336.77 -795.4,-351.08 -305.4,-14.54 -631,59.65 -884.8,234.27 -116.5,80.11 -213.7,185.46 -283.6,308.32 -65.8,115.7 -105.9,243.91 -126.6,375.09 -43.3,274.2 0.2,560.43 83.8,823.01 88.1,276.52 224.1,550.91 417,769.52 98.6,111.73 213,208.09 344.1,279.69 129.3,70.6 271.6,114.6 417.2,136.1 298.7,44.2 607.7,-10.4 889.9,-110.3 277.6,-98.4 540.5,-246.14 765.4,-436.67 214.2,-181.45 404.6,-406.27 509.8,-669.18 101.9,-254.77 115.6,-534.51 18.7,-793.03 -94.4,-251.99 -284.4,-463.86 -506.9,-611.23 -260.5,-172.58 -566.9,-254.01 -877.3,-267.33 -340.2,-14.59 -682.2,45.2 -1006.9,143.91 -260.3,79.11 -512.6,192.68 -734.6,351.14 -206.4,147.39 -390.4,343.74 -483.4,581.45 -54.3,138.79 -77,285.82 -70.7,434.62 7.4,173.54 52.3,343.77 112.7,505.9 99.1,265.75 248.2,514.27 436.7,726.22 182.9,205.6 403.8,378.9 656.6,489.7 245.6,107.6 520,145.8 784.6,99.2 267.1,-47.1 513.7,-172.8 724.2,-341.9 221.1,-177.6 407,-396.31 565.4,-630.56 81.1,-119.77 155.4,-244.01 224,-371.32 75.3,-140 145.5,-283.5 201.7,-432.34 112.8,-298.52 177,-642.48 31.9,-942.08 -134.1,-276.88 -396.6,-466.89 -645.7,-633.57 -267.5,-179.05 -556.3,-335.81 -871.7,-410.15 -249.2,-58.73 -514.2,-65.9 -766.4,-26.35 -258,40.44 -507.9,125.98 -736.1,252.28 -226.8,125.54 -430.9,290.24 -597.7,489.01 -166.4,198.26 -289.7,430.46 -362.2,678.6 -73.3,250.87 -96,512.02 -73.7,772.85 21.9,255.83 90,513.14 199.7,746.78 110.7,235.95 263.2,451.45 454.6,628.75 224,207.5 503.5,369.2 807.7,418.2 332.5,53.6 676.7,-42 971.6,-193 250.9,-128.4 475.6,-304.1 663.1,-514.3 183.7,-205.98 331.5,-446.85 424.6,-706.97 93,-259.75 133,-538.55 103,-813.51 -28.9,-263.75 -123.6,-521.67 -264.3,-746.95 -140,-224.02 -328.7,-419.15 -553.7,-558.46 -111.6,-69.1 -231.2,-124.15 -357.1,-161.73 -155.1,-46.34 -316.4,-63.82 -478,-62.82 -175.9,1.09 -351.5,22.44 -524.4,54.07 -163.8,29.97 -325.8,70.96 -482.6,127.38 -293.7,105.74 -567.1,270.73 -773.8,507.12 -189.5,216.75 -315.5,490.23 -325.5,780.31 -10.2,294.19 93.8,576.5 247.7,823.36 162.4,260.3 377.6,485.48 610.3,683.8 239.9,204.4 504.7,398.2 804.8,503 145.4,50.8 296.9,78.6 451.1,77.9 147.5,-0.7 293.3,-26.5 433.7,-71.1 286.3,-91.1 545.8,-259.7 761.9,-466.7 231.4,-221.77 416.7,-491.75 552,-781.7 141.9,-303.85 240.6,-646.27 221,-984.17 -8.8,-151.93 -45.3,-302.65 -112.9,-439.34 -58.5,-118.45 -136.8,-225.54 -229.5,-319.47 -191.3,-193.81 -437.6,-330.15 -697.9,-406.93 -316.7,-93.45 -655.7,-93.67 -980.3,-45.51 -348,51.61 -688.5,153.78 -1019.6,270.67 -262.1,92.5 -527.7,205.04 -743.9,383.55 -103.8,85.8 -195.1,186.28 -262.9,303.07 -83.3,143.56 -124.5,305.53 -151.6,468.09 -28.3,169.6 -52.6,344.15 -50.5,516.37 2,166.81 41.5,323.66 131.3,465.07 83.5,131.51 196.7,242.85 314.5,343.69 116,99.41 241.8,187.11 374.2,263.21 265.6,152.8 558,256.7 860,307.5 287,48.2 586,47.5 870.5,-14.1 265.3,-57.4 520.3,-164.1 742.3,-321.1 213.9,-151.2 392.8,-353.03 501,-592.74 134.4,-297.87 139.8,-639.98 66,-954.31 -65.7,-279.8 -192.8,-541.04 -366.7,-769.48 -164.4,-215.91 -371.8,-400.43 -603.4,-541.54 -231.8,-141.28 -489.2,-239.07 -757.7,-281.24 -265.1,-41.64 -536.6,-22.51 -793.8,52.92 -254.9,74.77 -495.2,202.51 -701.1,370.44 -207.2,169.04 -381.6,377.08 -505.8,614.3 -132.1,252.74 -199.5,534.9 -196.1,820.14 3.3,270.96 70.2,540.74 203.6,777.25 30.9,54.89 -53.5,104.25 -84.5,49.36 v 0" /></g><g
         transform="scale(2.15399)"
         id="g38"><path
           id="path40"
           style="fill:none;stroke:#f8a842;stroke-width:46.42549896;stroke-linecap:butt;stroke-linejoin:miter;stroke-miterlimit:10;stroke-dasharray:none;stroke-opacity:1"
           d="m 4424.35,14744.7 c 1761.2,-2133.1 3054.29,-2499.2 3932.24,-2404.8 950.66,102.3 1318.12,734.3 2525.51,724.2 1320.7,-11 1711,-773.9 2688.1,-724.2 700.1,35.6 1649.9,485.9 2729.8,2325.9" /></g><g
         transform="scale(2.43497)"
         id="g42"><path
           id="path44"
           style="fill:#f7907f;fill-opacity:1;fill-rule:nonzero;stroke:none"
           d="m 9815.32,12431.4 c 138.03,-213.8 369.38,-498.6 735.08,-665.3 569.4,-259.6 948.8,2.2 1704.4,-69.9 918.8,-87.5 1059.3,-541.3 1679.7,-591.3 521.6,-42.1 1305.5,207.6 2365.5,1655 -2161.5,-109.5 -4323.1,-219 -6484.68,-328.5" /></g></g></g></svg>